<svg width="413" height="447" viewBox="0 0 413 447" fill="none" xmlns="http://www.w3.org/2000/svg">
<path d="M206.5 412.47C320.254 412.47 412.47 320.254 412.47 206.5C412.47 92.7459 320.254 0.530029 206.5 0.530029C92.7459 0.530029 0.530029 92.7459 0.530029 206.5C0.530029 320.254 92.7459 412.47 206.5 412.47Z" fill="#EC5C57"/>
<path d="M206.5 412.47C320.254 412.47 412.47 320.254 412.47 206.5C412.47 92.7459 320.254 0.530029 206.5 0.530029C92.7459 0.530029 0.530029 92.7459 0.530029 206.5C0.530029 320.254 92.7459 412.47 206.5 412.47Z" fill="url(#paint0_linear_3803_1193)"/>
<path d="M121.334 268.866C121.334 268.866 125.07 280.266 134.746 287.355L140.781 288.217L135.321 288.601C135.321 288.601 140.973 294.349 148.637 297.414L152.756 297.223L149.499 298.372C156.109 303.162 172.491 307.09 172.491 307.09C172.491 307.09 167.222 294.828 159.654 288.984L155.63 285.439C155.63 285.439 149.116 280.074 142.793 277.009L143.08 280.841L140.494 276.147C133.692 272.315 129.189 272.794 121.334 268.866Z" fill="#FC6868"/>
<path d="M135.321 280.458C137.141 281.416 139.057 282.565 140.877 283.619C142.697 284.673 144.517 285.822 146.242 286.876C148.062 288.026 149.786 289.175 151.607 290.325C153.331 291.475 155.151 292.72 156.78 293.965C154.96 293.007 153.044 291.858 151.223 290.804C149.403 289.75 147.583 288.601 145.859 287.547C144.134 286.397 142.314 285.248 140.494 284.098C138.769 282.948 137.045 281.703 135.321 280.458Z" fill="#AEA2FF"/>
<path d="M363.42 127.369C363.42 127.369 360.834 129.094 356.427 132.063C360.93 128.902 363.42 127.369 363.42 127.369C363.42 127.369 335.255 128.998 313.509 146.721L308.048 159.941L310.347 147.391C310.347 147.391 293.965 156.876 282.374 172.299L280.362 181.784L279.691 173.736C264.842 185.807 246.353 220.583 246.353 220.583C246.353 220.583 277.392 215.888 295.019 202.476L305.557 195.483C305.557 195.483 321.46 183.987 332.381 171.341L323.472 169.617L335.734 166.551C348.092 153.139 349.817 142.793 363.42 127.369Z" fill="#FC6868"/>
<path d="M166.456 140.302C162.24 138.578 159.366 135.033 158.696 130.435C158.313 127.944 157.834 124.878 154.768 124.591C152.277 124.304 150.649 126.699 150.936 128.998C151.511 132.734 154.576 135.416 157.929 137.237C155.439 136.279 152.948 135.129 150.649 133.884C147.775 131.68 146.242 128.423 146.625 124.783C146.817 122.867 147.008 120.376 144.805 119.514C142.889 118.747 141.164 120.376 140.973 122.196C140.494 126.699 144.996 130.531 148.062 132.542C146.529 131.68 144.901 130.531 143.464 129.477C141.548 128.04 140.015 126.22 139.248 123.92C138.482 121.813 138.29 119.514 138.769 117.214C139.248 114.819 139.823 111.754 137.045 110.413C134.746 109.263 132.447 110.987 131.968 113.287C131.201 117.023 133.213 120.567 135.8 123.346C133.788 121.621 131.776 119.705 130.052 117.789C128.04 114.724 127.657 111.179 129.285 107.826C130.147 106.102 131.105 103.802 129.285 102.27C127.752 100.928 125.645 101.791 124.783 103.515C122.771 107.634 125.836 112.712 128.04 115.586C126.22 113.478 124.591 111.179 123.154 108.784C121.717 104.952 123.92 102.174 122.675 99.683C121.909 98.1502 119.609 97.3838 118.268 98.725C115.394 101.503 120.472 107.347 123.154 109.263C123.537 109.838 123.825 110.413 124.208 111.083C121.813 108.592 118.556 106.389 116.448 108.305C115.011 109.55 115.49 111.85 117.023 112.808C119.514 114.34 122.483 112.137 126.411 114.245C127.465 115.586 128.519 116.927 129.764 118.172C125.645 115.107 119.609 112.424 117.023 115.873C115.394 118.077 116.831 121.142 119.226 122.1C123.154 123.537 126.794 119.609 132.926 121.43C134.267 122.675 135.608 123.92 136.949 125.07C133.213 122.962 128.423 121.43 124.591 123.537C122.579 124.591 121.525 127.369 123.346 129.189C125.453 131.393 128.231 130.052 130.339 128.902C133.692 127.082 137.332 126.986 140.685 128.231C141.26 128.423 141.739 128.71 142.314 129.094C142.601 129.285 142.889 129.573 143.176 129.764C140.111 128.231 136.279 127.273 134.842 129.764C133.884 131.489 135.129 133.405 136.853 133.788C139.632 134.363 141.835 131.297 146.242 131.968C147.679 132.926 149.212 133.788 150.744 134.554C145.763 133.117 139.248 132.542 138.003 136.662C137.141 139.344 139.536 141.739 142.122 141.739C146.338 141.739 148.349 136.853 154.864 136.47C156.492 137.237 158.217 137.907 159.845 138.482C155.63 137.811 150.649 137.907 147.679 141.164C146.146 142.889 146.146 145.763 148.349 147.008C151.032 148.445 153.235 146.146 154.864 144.326C157.546 140.781 161.953 139.536 166.456 140.302C166.647 140.398 166.743 140.398 166.743 140.398C166.743 140.494 166.647 140.398 166.456 140.302Z" fill="#FC6868"/>
<path d="M279.021 218.858C284.673 218.283 289.463 215.122 291.858 209.853C293.199 207.075 294.923 203.626 298.66 204.297C301.821 204.871 302.875 208.32 301.629 211.003C299.618 215.314 294.923 217.325 290.325 218.283C293.678 217.996 297.031 217.613 300.288 216.942C304.503 215.409 307.569 211.961 308.431 207.458C308.91 205.063 309.581 201.997 312.551 201.806C315.041 201.614 316.574 204.105 316.191 206.308C315.137 211.961 308.335 214.739 303.929 216.08C306.036 215.601 308.431 214.835 310.635 214.068C313.413 213.11 315.999 211.386 317.724 208.991C319.352 206.787 320.406 204.105 320.694 201.135C320.981 198.07 321.46 194.238 325.196 193.567C328.358 193.088 330.465 195.962 330.274 198.836C329.795 203.53 326.154 207.075 322.035 209.566C325.1 208.224 328.07 206.692 330.944 204.967C334.393 202.093 336.213 197.878 335.447 193.375C335.064 190.98 334.68 187.915 337.459 186.669C339.758 185.616 342.057 187.532 342.344 189.735C343.207 195.387 337.842 200.369 334.106 203.051C336.98 201.135 339.758 199.028 342.44 196.728C345.602 192.609 343.877 188.585 346.368 186.095C347.901 184.562 350.871 184.466 352.02 186.574C354.415 190.885 346.272 196.058 342.344 197.399C341.674 197.974 341.099 198.549 340.428 199.123C344.165 197.016 348.955 195.579 350.775 198.549C352.02 200.656 350.583 203.147 348.476 203.722C345.027 204.68 342.153 200.944 336.692 202.093C334.968 203.339 333.148 204.488 331.232 205.638C337.267 203.53 345.506 202.381 347.326 207.458C348.476 210.715 345.697 213.877 342.536 214.068C337.363 214.356 334.393 208.32 326.346 208.224C324.334 209.278 322.226 210.14 320.215 211.098C325.388 209.949 331.711 209.853 335.638 213.781C337.65 215.793 337.842 219.433 335.064 221.062C331.806 222.978 328.932 220.295 326.729 218.092C323.376 214.739 319.065 213.206 314.562 213.493C313.796 213.589 313.03 213.685 312.359 213.972C311.88 214.164 311.497 214.26 311.114 214.451C315.329 213.781 320.31 213.972 321.077 217.421C321.556 219.816 319.352 221.732 317.149 221.541C313.509 221.253 312.167 216.846 306.611 215.984C304.503 216.559 302.492 217.134 300.288 217.517C306.707 217.517 314.754 219.241 314.85 224.702C314.85 228.151 311.114 230.258 308.048 229.3C303.066 227.863 302.3 221.157 294.732 218.379C292.528 218.667 290.229 218.858 288.026 218.954C293.295 219.625 299.33 221.636 301.629 226.618C302.875 229.205 301.821 232.749 298.66 233.324C294.923 233.995 293.103 230.546 291.858 227.768C289.463 222.69 284.673 219.529 279.021 218.858Z" fill="#FC6868"/>
<path d="M285.152 215.793L304.887 247.119L293.007 285.248L269.728 258.903L285.152 215.793Z" fill="#C7956D"/>
<path d="M183.7 228.821L180.155 226.905V222.69L183.7 224.606V228.821Z" fill="#828282"/>
<path d="M179.772 229.3L176.227 227.384L180.155 226.905L183.7 228.821L179.772 229.3Z" fill="#B4B4B4"/>
<path d="M179.772 229.3L176.227 227.384V223.169L179.772 225.085V229.3Z" fill="black"/>
<path d="M179.772 225.085L176.227 223.169L180.155 222.69L183.7 224.606L179.772 225.085Z" fill="black"/>
<path d="M175.844 234.09L172.299 232.174L172.395 227.959L175.844 229.875V234.09Z" fill="#828282"/>
<path d="M172.012 234.665L168.467 232.749L172.299 232.174L175.844 234.09L172.012 234.665Z" fill="#B4B4B4"/>
<path d="M175.844 229.875L172.395 227.959V223.744L175.844 225.66V229.875Z" fill="#828282"/>
<path d="M168.084 235.144L164.54 233.228L168.467 232.749L172.012 234.665L168.084 235.144Z" fill="#B4B4B4"/>
<path d="M179.772 216.751L176.227 214.835V210.619L179.772 212.535V216.751Z" fill="#828282"/>
<path d="M172.012 226.235L168.467 224.319L172.395 223.744L175.844 225.66L172.012 226.235Z" fill="black"/>
<path d="M183.7 207.745L180.155 205.829V201.614L183.7 203.626V207.745Z" fill="#828282"/>
<path d="M175.844 221.445L172.395 219.529V215.314L175.94 217.23L175.844 221.445Z" fill="#828282"/>
<path d="M175.94 217.23L172.395 215.314L176.227 214.835L179.772 216.751L175.94 217.23Z" fill="#B4B4B4"/>
<path d="M179.772 208.32L176.323 206.404L180.155 205.829L183.7 207.745L179.772 208.32Z" fill="#B4B4B4"/>
<path d="M172.012 226.235L168.467 224.319V220.104L172.012 222.02V226.235Z" fill="#828282"/>
<path d="M172.012 222.02L168.467 220.104L172.395 219.529L175.844 221.445L172.012 222.02Z" fill="#B4B4B4"/>
<path d="M164.156 235.719L160.708 233.803L164.54 233.228L168.084 235.144L164.156 235.719Z" fill="#B4B4B4"/>
<path d="M183.7 203.626L180.155 201.614V197.495L183.7 199.411V203.626Z" fill="#828282"/>
<path d="M175.94 213.11L172.395 211.194L176.227 210.619L179.772 212.535L175.94 213.11Z" fill="black"/>
<path d="M179.772 208.32L176.323 206.404V202.189L179.772 204.105V208.32Z" fill="black"/>
<path d="M175.94 213.11L172.395 211.194V206.979L175.94 208.895V213.11Z" fill="#828282"/>
<path d="M168.084 226.81L164.54 224.894V220.678L168.084 222.594V226.81Z" fill="black"/>
<path d="M160.324 236.294L156.78 234.378L160.708 233.803L164.156 235.719L160.324 236.294Z" fill="#B4B4B4"/>
<path d="M179.772 204.105L176.323 202.189V197.974L179.772 199.89V204.105Z" fill="black"/>
<path d="M179.772 199.89L176.323 197.974L180.155 197.495L183.7 199.411L179.772 199.89Z" fill="black"/>
<path d="M164.156 227.289L160.708 225.373L164.54 224.894L168.084 226.81L164.156 227.289Z" fill="black"/>
<path d="M183.7 195.196L180.155 193.28V189.064L183.7 190.98V195.196Z" fill="#828282"/>
<path d="M175.94 208.895L172.395 206.979V202.764L175.94 204.68V208.895Z" fill="#828282"/>
<path d="M160.324 236.294L156.78 234.378V230.163L160.324 232.079V236.294Z" fill="black"/>
<path d="M179.868 195.675L176.323 193.759L180.155 193.28L183.7 195.196L179.868 195.675Z" fill="#B4B4B4"/>
<path d="M164.252 223.073L160.708 221.157L164.54 220.678L168.084 222.594L164.252 223.073Z" fill="#B4B4B4"/>
<path d="M164.156 227.289L160.708 225.373V221.157L164.252 223.073L164.156 227.289Z" fill="#828282"/>
<path d="M179.868 191.555L176.323 189.639L180.155 189.064L183.7 190.98L179.868 191.555Z" fill="black"/>
<path d="M172.012 205.255L168.467 203.339L172.395 202.764L175.94 204.68L172.012 205.255Z" fill="black"/>
<path d="M164.252 223.073L160.708 221.157V217.038L164.252 218.954V223.073Z" fill="black"/>
<path d="M156.397 232.653L152.852 230.642L156.78 230.163L160.324 232.079L156.397 232.653Z" fill="#B4B4B4"/>
<path d="M175.94 196.249L172.395 194.333L176.323 193.759L179.868 195.675L175.94 196.249Z" fill="#B4B4B4"/>
<path d="M168.084 214.164L164.635 212.248V208.033L168.084 209.949V214.164Z" fill="black"/>
<path d="M160.324 223.648L156.78 221.732L160.708 221.157L164.252 223.073L160.324 223.648Z" fill="black"/>
<path d="M179.868 191.555L176.323 189.639V185.424L179.868 187.34V191.555Z" fill="#828282"/>
<path d="M164.252 218.954L160.708 217.038V212.823L164.252 214.739V218.954Z" fill="black"/>
<path d="M164.252 214.739L160.708 212.823L164.635 212.248L168.084 214.164L164.252 214.739Z" fill="black"/>
<path d="M175.94 196.249L172.395 194.333V190.118L175.94 192.034V196.249Z" fill="black"/>
<path d="M168.18 205.734L164.635 203.818L168.467 203.339L172.012 205.255L168.18 205.734Z" fill="black"/>
<path d="M168.084 209.949L164.635 208.033V203.818L168.18 205.734L168.084 209.949Z" fill="black"/>
<path d="M160.324 223.648L156.78 221.732V217.517L160.324 219.433V223.648Z" fill="#828282"/>
<path d="M152.469 237.348L149.02 235.432V231.216L152.565 233.132L152.469 237.348Z" fill="#828282"/>
<path d="M152.565 233.132L149.02 231.216L152.852 230.642L156.397 232.653L152.565 233.132Z" fill="#B4B4B4"/>
<path d="M164.252 214.739L160.708 212.823V208.608L164.252 210.524V214.739Z" fill="#828282"/>
<path d="M175.94 192.034L172.395 190.118V185.903L175.94 187.819V192.034Z" fill="black"/>
<path d="M175.94 187.819L172.395 185.903L176.323 185.424L179.868 187.34L175.94 187.819Z" fill="black"/>
<path d="M148.637 237.922L145.092 236.006L149.02 235.432L152.469 237.348L148.637 237.922Z" fill="#B4B4B4"/>
<path d="M160.324 215.218L156.78 213.302L160.708 212.823L164.252 214.739L160.324 215.218Z" fill="#B4B4B4"/>
<path d="M179.868 183.125L176.323 181.209V176.994L179.868 178.91V183.125Z" fill="#828282"/>
<path d="M172.012 196.824L168.467 194.908L168.563 190.693L172.012 192.609V196.824Z" fill="#828282"/>
<path d="M183.795 174.215L180.251 172.204V168.084L183.795 170V174.215Z" fill="#828282"/>
<path d="M156.397 220.008L152.948 218.092L156.78 217.517L160.324 219.433L156.397 220.008Z" fill="black"/>
<path d="M175.94 187.819L172.395 185.903V181.784L175.94 183.7V187.819Z" fill="#828282"/>
<path d="M175.94 183.7L172.395 181.784L176.323 181.209L179.868 183.125L175.94 183.7Z" fill="#B4B4B4"/>
<path d="M148.637 237.922L145.092 236.006V231.791L148.637 233.707V237.922Z" fill="black"/>
<path d="M168.18 197.399L164.635 195.483L168.467 194.908L172.012 196.824L168.18 197.399Z" fill="#B4B4B4"/>
<path d="M160.324 211.098L156.78 209.182L160.708 208.608L164.252 210.524L160.324 211.098Z" fill="black"/>
<path d="M160.324 215.218L156.78 213.302V209.182L160.324 211.098V215.218Z" fill="black"/>
<path d="M179.868 174.694L176.323 172.778L180.251 172.204L183.795 174.215L179.868 174.694Z" fill="#B4B4B4"/>
<path d="M152.565 228.917L149.02 227.001V222.882L152.565 224.798V228.917Z" fill="black"/>
<path d="M152.565 224.798L149.02 222.882L152.948 222.307L156.397 224.223L152.565 224.798Z" fill="black"/>
<path d="M152.565 228.917L149.02 227.001V222.882L152.565 224.798V228.917Z" fill="#828282"/>
<path d="M152.565 224.798L149.02 222.882L152.948 222.307L156.397 224.223L152.565 224.798Z" fill="#B4B4B4"/>
<path d="M172.012 188.394L168.563 186.478L172.395 185.903L175.94 187.819L172.012 188.394Z" fill="#B4B4B4"/>
<path d="M172.012 192.609L168.563 190.693V186.478L172.012 188.394V192.609Z" fill="#828282"/>
<path d="M164.252 206.308L160.708 204.392V200.177L164.252 202.093V206.308Z" fill="#828282"/>
<path d="M183.795 170L180.251 168.084V163.869L183.795 165.785V170Z" fill="#828282"/>
<path d="M156.397 220.008L152.948 218.092V213.877L156.397 215.793V220.008Z" fill="#828282"/>
<path d="M179.868 178.91V183.125L175.94 183.7V179.484L179.868 178.91Z" fill="black"/>
<path d="M175.94 183.7L172.395 181.784V177.568L175.94 179.484V183.7Z" fill="black"/>
<path d="M175.94 179.484L172.395 177.568L176.323 176.994L179.868 178.91L175.94 179.484Z" fill="black"/>
<path d="M168.18 197.399L164.635 195.483V191.268L168.18 193.184V197.399Z" fill="black"/>
<path d="M160.324 206.883L156.78 204.967L160.708 204.392L164.252 206.308L160.324 206.883Z" fill="#B4B4B4"/>
<path d="M172.108 184.179L168.563 182.263L172.395 181.784L175.94 183.7L172.108 184.179Z" fill="black"/>
<path d="M144.709 234.282L141.164 232.366L145.092 231.791L148.637 233.707L144.709 234.282Z" fill="#B4B4B4"/>
<path d="M144.709 238.497L141.164 236.581V232.366L144.709 234.282V238.497Z" fill="#828282"/>
<path d="M164.252 202.093L160.708 200.177V195.962L164.252 197.878V202.093Z" fill="#828282"/>
<path d="M183.795 165.785L180.251 163.869V159.654L183.795 161.57V165.785Z" fill="#828282"/>
<path d="M175.94 175.269L172.491 173.353L176.323 172.778L179.868 174.694L175.94 175.269Z" fill="#B4B4B4"/>
<path d="M148.637 229.492L145.092 227.576V223.361L148.637 225.277V229.492Z" fill="black"/>
<path d="M168.18 193.184L164.635 191.268V187.053L168.18 188.969V193.184Z" fill="black"/>
<path d="M140.877 238.976L137.332 237.06L141.164 236.581L144.709 238.497L140.877 238.976Z" fill="#B4B4B4"/>
<path d="M160.324 206.883L156.78 204.967L156.876 200.752L160.324 202.668V206.883Z" fill="black"/>
<path d="M152.565 216.367L149.02 214.451L152.948 213.877L156.397 215.793L152.565 216.367Z" fill="black"/>
<path d="M152.565 220.583L149.02 218.667V214.451L152.565 216.367V220.583Z" fill="black"/>
<path d="M172.108 184.179L168.563 182.263V178.143L172.108 180.059V184.179Z" fill="#828282"/>
<path d="M144.709 230.067L141.26 228.151L145.092 227.576L148.637 229.492L144.709 230.067Z" fill="black"/>
<path d="M164.252 197.878L160.708 195.962V191.747L164.252 193.759V197.878Z" fill="#828282"/>
<path d="M183.795 161.57L180.251 159.654V155.439L183.795 157.355V161.57Z" fill="#828282"/>
<path d="M156.492 211.577L152.948 209.661V205.446L156.492 207.362V211.577Z" fill="#828282"/>
<path d="M148.637 221.062L145.092 219.146L149.02 218.667L152.565 220.583L148.637 221.062Z" fill="black"/>
<path d="M168.18 188.969L164.635 187.053V182.837L168.18 184.753V188.969Z" fill="black"/>
<path d="M140.877 238.976L137.332 237.06V232.845L140.877 234.761V238.976Z" fill="black"/>
<path d="M160.324 202.668L156.876 200.752V196.537L160.324 198.453V202.668Z" fill="black"/>
<path d="M152.565 212.152L149.02 210.236L152.948 209.661L156.492 211.577L152.565 212.152Z" fill="#B4B4B4"/>
<path d="M172.108 175.844L168.563 173.928L172.491 173.353L175.94 175.269L172.108 175.844Z" fill="#B4B4B4"/>
<path d="M144.709 225.852L141.26 223.936L145.092 223.361L148.637 225.277L144.709 225.852Z" fill="#B4B4B4"/>
<path d="M164.252 193.759L160.708 191.747V187.627L164.252 189.543V193.759Z" fill="#828282"/>
<path d="M183.795 157.355L180.251 155.439V151.223L183.795 153.139V157.355Z" fill="#828282"/>
<path d="M148.637 221.062L145.092 219.146V215.026L148.637 216.942V221.062Z" fill="#828282"/>
<path d="M168.18 184.753L164.635 182.837V178.622L168.18 180.538V184.753Z" fill="black"/>
<path d="M168.18 180.538L164.635 178.622L168.563 178.143L172.108 180.059L168.18 180.538Z" fill="black"/>
<path d="M140.877 230.642L137.332 228.726L141.26 228.151L144.709 230.067L140.877 230.642Z" fill="black"/>
<path d="M140.877 234.761L137.332 232.845V228.726L140.877 230.642V234.761Z" fill="black"/>
<path d="M156.492 207.362V211.577L152.565 212.152V207.937L156.492 207.362Z" fill="black"/>
<path d="M152.565 207.937L149.02 206.021L152.948 205.446L156.492 207.362L152.565 207.937Z" fill="black"/>
<path d="M152.565 212.152L149.02 210.236V206.021L152.565 207.937V212.152Z" fill="black"/>
<path d="M164.252 189.543L160.708 187.627L160.803 183.412L164.252 185.328V189.543Z" fill="#828282"/>
<path d="M136.949 239.551L133.405 237.635V233.42L136.949 235.336V239.551Z" fill="#828282"/>
<path d="M183.795 153.139L180.251 151.223V147.008L183.795 148.924V153.139Z" fill="#828282"/>
<path d="M156.492 199.028L152.948 197.112L156.876 196.537L160.324 198.453L156.492 199.028Z" fill="#B4B4B4"/>
<path d="M168.18 176.323L164.635 174.407L168.563 173.928L172.108 175.844L168.18 176.323Z" fill="#B4B4B4"/>
<path d="M140.877 226.426L137.332 224.51L141.26 223.936L144.709 225.852L140.877 226.426Z" fill="#B4B4B4"/>
<path d="M148.637 229.492L144.709 230.067L140.877 230.642V226.426L144.709 225.852L148.637 225.277V229.492Z" fill="white"/>
<path d="M140.877 230.642L137.332 228.726V224.51L140.877 226.426V230.642Z" fill="#828282"/>
<path d="M133.021 240.126L129.477 238.21L133.405 237.635L136.949 239.551L133.021 240.126Z" fill="#B4B4B4"/>
<path d="M152.565 207.937L149.02 206.021V201.806L152.565 203.722V207.937Z" fill="#828282"/>
<path d="M144.805 217.421L141.26 215.505L145.092 215.026L148.637 216.942L144.805 217.421Z" fill="black"/>
<path d="M164.252 185.328L160.803 183.412V179.197L164.252 181.113V185.328Z" fill="#828282"/>
<path d="M136.949 235.336L133.405 233.42V229.205L136.949 231.121V235.336Z" fill="#828282"/>
<path d="M136.949 231.121L133.405 229.205L137.332 228.726L140.877 230.642L136.949 231.121Z" fill="#B4B4B4"/>
<path d="M183.795 148.924L180.251 147.008V142.889L183.795 144.805V148.924Z" fill="#828282"/>
<path d="M148.637 208.512L145.188 206.596L149.02 206.021L152.565 207.937L148.637 208.512Z" fill="#B4B4B4"/>
<path d="M148.637 212.727L145.188 210.811V206.596L148.637 208.512V212.727Z" fill="#828282"/>
<path d="M140.877 226.426L137.332 224.51V220.295L140.877 222.211V226.426Z" fill="black"/>
<path d="M133.021 240.126L129.477 238.21L129.573 233.995L133.021 235.911V240.126Z" fill="black"/>
<path d="M152.565 199.507L149.02 197.591L152.948 197.112L156.492 199.028L152.565 199.507Z" fill="#B4B4B4"/>
<path d="M152.565 203.722L149.02 201.806V197.591L152.565 199.507V203.722Z" fill="#828282"/>
<path d="M144.805 217.421L141.26 215.505V211.29L144.805 213.206V217.421Z" fill="#828282"/>
<path d="M144.805 213.206L141.26 211.29L145.188 210.811L148.637 212.727L144.805 213.206Z" fill="#B4B4B4"/>
<path d="M164.252 176.898L160.803 174.982L164.635 174.407L168.18 176.323L164.252 176.898Z" fill="#B4B4B4"/>
<path d="M136.949 226.905L133.405 224.989L137.332 224.51L140.877 226.426L136.949 226.905Z" fill="black"/>
<path d="M148.637 208.512L145.188 206.596V202.381L148.637 204.297V208.512Z" fill="black"/>
<path d="M160.42 185.807L156.876 183.891V179.772L160.42 181.688V185.807Z" fill="black"/>
<path d="M160.42 181.688L156.876 179.772L160.803 179.197L164.252 181.113L160.42 181.688Z" fill="black"/>
<path d="M133.021 235.911L129.573 233.995V229.779L133.021 231.695V235.911Z" fill="black"/>
<path d="M179.963 145.284L176.419 143.368L180.251 142.889L183.795 144.805L179.963 145.284Z" fill="black"/>
<path d="M144.805 209.087L141.26 207.171L145.188 206.596L148.637 208.512L144.805 209.087Z" fill="black"/>
<path d="M136.949 222.786L133.405 220.774L137.332 220.295L140.877 222.211L136.949 222.786Z" fill="#B4B4B4"/>
<path d="M136.949 226.905L133.405 224.989V220.774L136.949 222.786V226.905Z" fill="#828282"/>
<path d="M156.492 186.382L152.948 184.466L156.876 183.891L160.42 185.807L156.492 186.382Z" fill="black"/>
<path d="M129.189 240.605L125.645 238.689V234.474L129.189 236.39V240.605Z" fill="#828282"/>
<path d="M176.036 150.074L172.491 148.158L176.419 147.583L179.868 149.499L176.036 150.074Z" fill="black"/>
<path d="M176.036 150.074L172.491 148.158L176.419 147.583L179.868 149.499L176.036 150.074Z" fill="#B4B4B4"/>
<path d="M148.637 204.297L145.188 202.381V198.165L148.733 200.081L148.637 204.297Z" fill="black"/>
<path d="M160.42 177.473L156.876 175.557L160.803 174.982L164.252 176.898L160.42 177.473Z" fill="#B4B4B4"/>
<path d="M133.021 231.695L129.573 229.779V225.564L133.117 227.48L133.021 231.695Z" fill="black"/>
<path d="M156.492 194.812L152.565 195.387V191.172L156.492 190.597V194.812Z" fill="black"/>
<path d="M152.565 191.172L149.116 189.256L152.948 188.681L156.492 190.597L152.565 191.172Z" fill="black"/>
<path d="M152.565 195.387L149.02 193.471L149.116 189.256L152.565 191.172V195.387Z" fill="#828282"/>
<path d="M152.565 191.172L149.116 189.256L152.948 188.681L156.492 190.597L152.565 191.172Z" fill="#B4B4B4"/>
<path d="M152.565 195.387L149.02 193.471L149.116 189.256L152.565 191.172V195.387Z" fill="black"/>
<path d="M125.262 241.18L121.717 239.264L125.645 238.689L129.189 240.605L125.262 241.18Z" fill="#B4B4B4"/>
<path d="M172.108 154.768L168.563 152.852L172.491 152.373L176.036 154.289L172.108 154.768Z" fill="black"/>
<path d="M172.108 154.768L168.563 152.852L172.491 152.373L176.036 154.289L172.108 154.768Z" fill="#B4B4B4"/>
<path d="M156.492 186.382L152.948 184.466V180.251L156.492 182.167V186.382Z" fill="#828282"/>
<path d="M129.189 236.39L125.645 234.474V230.354L129.189 232.27V236.39Z" fill="#828282"/>
<path d="M176.036 145.859L172.491 143.943L176.419 143.368L179.963 145.284L176.036 145.859Z" fill="black"/>
<path d="M140.877 213.781L137.332 211.865V207.65L140.877 209.566V213.781Z" fill="black"/>
<path d="M140.877 209.566L137.332 207.65L141.26 207.171L144.805 209.087L140.877 209.566Z" fill="black"/>
<path d="M133.117 227.48L129.573 225.564V221.349L133.117 223.265V227.48Z" fill="black"/>
<path d="M172.108 150.649L168.563 148.733L172.491 148.158L176.036 150.074L172.108 150.649Z" fill="#B4B4B4"/>
<path d="M172.108 150.649L168.563 148.733L172.491 148.158L176.036 150.074L172.108 150.649Z" fill="black"/>
<path d="M144.805 200.656L141.26 198.74L145.188 198.165L148.733 200.081L144.805 200.656Z" fill="#B4B4B4"/>
<path d="M144.805 204.871L141.26 202.955V198.74L144.805 200.656V204.871Z" fill="#828282"/>
<path d="M164.348 168.467L160.803 166.551V162.432L164.348 164.348V168.467Z" fill="black"/>
<path d="M164.348 168.467L160.803 166.551V162.432L164.348 164.348V168.467Z" fill="#828282"/>
<path d="M136.949 214.356L133.5 212.44L137.332 211.865L140.877 213.781L136.949 214.356Z" fill="black"/>
<path d="M136.949 218.571L133.5 216.655V212.44L136.949 214.356V218.571Z" fill="black"/>
<path d="M156.492 177.952L152.948 176.036L156.876 175.557L160.42 177.473L156.492 177.952Z" fill="#B4B4B4"/>
<path d="M129.189 232.27L125.645 230.354V226.139L129.189 228.055V232.27Z" fill="#828282"/>
<path d="M148.733 195.866L145.188 193.95V189.735L148.733 191.651V195.866Z" fill="black"/>
<path d="M121.334 241.754L117.885 239.838L121.717 239.264L125.262 241.18L121.334 241.754Z" fill="#B4B4B4"/>
<path d="M168.18 155.343L164.731 153.427L168.563 152.852L172.108 154.768L168.18 155.343Z" fill="black"/>
<path d="M168.18 155.343L164.731 153.427L168.563 152.852L172.108 154.768L168.18 155.343Z" fill="#B4B4B4"/>
<path d="M140.877 205.35L137.332 203.434L141.26 202.955L144.805 204.871L140.877 205.35Z" fill="#B4B4B4"/>
<path d="M160.42 173.257L156.876 171.341V167.126L160.42 169.042V173.257Z" fill="#828282"/>
<path d="M160.42 173.257L156.876 171.341V167.126L160.42 169.042V173.257Z" fill="black"/>
<path d="M133.117 223.265L129.573 221.349V217.134L133.117 219.05V223.265Z" fill="black"/>
<path d="M133.117 219.05L129.573 217.134L133.5 216.655L136.949 218.571L133.117 219.05Z" fill="black"/>
<path d="M175.94 213.11L179.772 212.535V216.751L175.94 217.23L175.844 221.445L172.012 222.02V226.235L175.844 225.66V229.875V234.09L172.012 234.665L168.084 235.144L164.156 235.719L160.324 236.294V232.079L156.397 232.653L152.565 233.132L152.469 237.348L148.637 237.922V233.707L144.709 234.282V238.497L140.877 238.976V234.761V230.642L144.709 230.067L148.637 229.492V225.277L144.709 225.852L140.877 226.426V222.211L136.949 222.786V226.905L140.877 226.426V230.642L136.949 231.121V235.336V239.551L133.021 240.126V235.911V231.695L133.117 227.48V223.265V219.05L136.949 218.571V214.356L140.877 213.781V209.566L144.805 209.087L148.637 208.512V212.727L144.805 213.206V217.421L148.637 216.942V221.062L152.565 220.583V216.367L156.397 215.793V220.008L160.324 219.433V223.648L164.252 223.073L164.156 227.289L168.084 226.81V222.594L164.252 223.073V218.954V214.739L168.084 214.164V209.949L168.18 205.734L172.012 205.255L175.94 204.68V208.895V213.11Z" fill="black"/>
<path d="M152.66 182.742L149.116 180.826L152.948 180.251L156.492 182.167L152.66 182.742Z" fill="black"/>
<path d="M152.565 186.957L149.116 185.041V180.826L152.66 182.742L152.565 186.957Z" fill="black"/>
<path d="M172.108 146.433L168.563 144.517L172.491 143.943L176.036 145.859L172.108 146.433Z" fill="black"/>
<path d="M144.805 196.441L141.26 194.525L145.188 193.95L148.733 195.866L144.805 196.441Z" fill="black"/>
<path d="M164.348 164.348L160.803 162.432V158.217L164.348 160.133V164.348Z" fill="black"/>
<path d="M164.348 164.348L160.803 162.432V158.217L164.348 160.133V164.348Z" fill="#828282"/>
<path d="M136.949 214.356L133.5 212.44V208.224L137.045 210.14L136.949 214.356Z" fill="#828282"/>
<path d="M156.492 177.952L152.948 176.036V171.916L156.492 173.832V177.952Z" fill="black"/>
<path d="M129.189 228.055L125.645 226.139V221.924L129.189 223.84V228.055Z" fill="#828282"/>
<path d="M148.733 187.532L145.188 185.616L149.116 185.041L152.565 186.957L148.733 187.532Z" fill="black"/>
<path d="M168.276 151.128L164.731 149.212L168.563 148.733L172.108 150.649L168.276 151.128Z" fill="#B4B4B4"/>
<path d="M168.276 151.128L164.731 149.212L168.563 148.733L172.108 150.649L168.276 151.128Z" fill="black"/>
<path d="M160.42 169.042L156.876 167.126V162.911L160.42 164.827V169.042Z" fill="black"/>
<path d="M160.42 169.042L156.876 167.126V162.911L160.42 164.827V169.042Z" fill="#828282"/>
<path d="M133.117 214.93L129.573 213.014L133.5 212.44L136.949 214.356L133.117 214.93Z" fill="#B4B4B4"/>
<path d="M144.805 196.441L141.26 194.525V190.31L144.805 192.226V196.441Z" fill="#828282"/>
<path d="M144.805 192.226L141.26 190.31L145.188 189.735L148.733 191.651L144.805 192.226Z" fill="#B4B4B4"/>
<path d="M117.502 242.329L113.957 240.317L117.885 239.838L121.334 241.754L117.502 242.329Z" fill="#B4B4B4"/>
<path d="M176.036 154.289V158.504V162.624V166.839L172.108 167.414L168.18 167.988L164.348 168.467V164.348V160.133V155.918L168.18 155.343L172.108 154.768L176.036 154.289Z" fill="black"/>
<path d="M164.348 155.918L160.803 154.002L164.731 153.427L168.18 155.343L164.348 155.918Z" fill="black"/>
<path d="M164.348 160.133L160.803 158.217V154.002L164.348 155.918V160.133Z" fill="black"/>
<path d="M164.348 155.918L160.803 154.002L164.731 153.427L168.18 155.343L164.348 155.918Z" fill="#B4B4B4"/>
<path d="M164.348 160.133L160.803 158.217V154.002L164.348 155.918V160.133Z" fill="#828282"/>
<path d="M179.868 153.714V157.929V162.145V166.36V170.479L175.94 171.054L172.108 171.629L168.18 172.204L164.348 172.683L160.42 173.257V169.042V164.827V160.612V156.492V152.277L164.348 151.702L168.276 151.128L172.108 150.649L176.036 150.074L179.868 149.499V153.714Z" fill="black"/>
<path d="M172.108 150.649L176.036 150.074L179.868 149.499V153.714V157.929V162.145V166.36V170.479L175.94 171.054L172.108 171.629L168.18 172.204L164.348 172.683L160.42 173.257V169.042V164.827V160.612V156.492V152.277L164.348 151.702L168.276 151.128L172.108 150.649Z" fill="#DFDFDF"/>
<path d="M176.036 158.504V162.624V166.839L172.108 167.414L168.18 167.988L164.348 168.467V164.348V160.133V155.918L168.18 155.343L172.108 154.768L176.036 154.289V158.504Z" fill="#DFDFDF"/>
<path d="M137.045 210.14L133.5 208.224V204.009L137.045 205.925V210.14Z" fill="#828282"/>
<path d="M137.045 205.925L133.5 204.009L137.332 203.434L140.877 205.35L137.045 205.925Z" fill="#B4B4B4"/>
<path d="M156.492 173.832L152.948 171.916L153.044 167.701L156.492 169.617V173.832Z" fill="black"/>
<path d="M129.189 223.84L125.645 221.924V217.709L129.189 219.625V223.84Z" fill="#828282"/>
<path d="M148.733 187.532L145.188 185.616V181.4L148.733 183.316V187.532Z" fill="#828282"/>
<path d="M168.276 146.912L164.731 144.996L168.563 144.517L172.108 146.433L168.276 146.912Z" fill="black"/>
<path d="M160.42 164.827L156.876 162.911V158.696L160.42 160.612V164.827Z" fill="black"/>
<path d="M160.42 164.827L156.876 162.911V158.696L160.42 160.612V164.827Z" fill="#828282"/>
<path d="M133.117 214.93L129.573 213.014V208.799L133.117 210.715V214.93Z" fill="black"/>
<path d="M152.66 178.526L149.116 176.61V172.395L152.66 174.311V178.526Z" fill="#828282"/>
<path d="M144.805 192.226L141.26 190.31V186.095L144.805 188.011V192.226Z" fill="black"/>
<path d="M164.348 151.702L160.803 149.786L164.731 149.212L168.276 151.128L164.348 151.702Z" fill="#B4B4B4"/>
<path d="M164.348 151.702L160.803 149.786L164.731 149.212L168.276 151.128L164.348 151.702Z" fill="black"/>
<path d="M156.492 169.617L153.044 167.701V163.486L156.492 165.402V169.617Z" fill="black"/>
<path d="M129.189 219.625L125.645 217.709V213.493L129.189 215.409V219.625Z" fill="#828282"/>
<path d="M148.733 179.101L145.188 177.185L149.116 176.61L152.66 178.526L148.733 179.101Z" fill="#B4B4B4"/>
<path d="M140.877 197.016L137.428 195.1V190.885L140.877 192.801V197.016Z" fill="black"/>
<path d="M140.877 192.801L137.428 190.885L141.26 190.31L144.805 192.226L140.877 192.801Z" fill="black"/>
<path d="M113.574 242.808L110.029 240.892L113.957 240.317L117.502 242.329L113.574 242.808Z" fill="#B4B4B4"/>
<path d="M160.42 160.612L156.876 158.696V154.576L160.42 156.492V160.612Z" fill="black"/>
<path d="M160.42 160.612L156.876 158.696V154.576L160.42 156.492V160.612Z" fill="#828282"/>
<path d="M133.117 210.715L129.573 208.799V204.584L133.117 206.5V210.715Z" fill="black"/>
<path d="M144.805 188.011L141.26 186.095V181.879L144.805 183.891V188.011Z" fill="black"/>
<path d="M144.805 183.891L141.26 181.879L145.188 181.4L148.733 183.316L144.805 183.891Z" fill="black"/>
<path d="M164.348 147.487L160.803 145.571L164.731 144.996L168.276 146.912L164.348 147.487Z" fill="black"/>
<path d="M137.045 201.71L133.5 199.794V195.579L137.045 197.495V201.71Z" fill="black"/>
<path d="M137.045 197.495L133.5 195.579L137.428 195.1L140.877 197.016L137.045 197.495Z" fill="black"/>
<path d="M156.492 165.402L153.044 163.486V159.271L156.588 161.187L156.492 165.402Z" fill="black"/>
<path d="M129.189 215.409L125.645 213.493V209.278L129.189 211.194V215.409Z" fill="#828282"/>
<path d="M148.733 179.101L145.188 177.185V172.97L148.733 174.886V179.101Z" fill="black"/>
<path d="M148.733 174.886L145.188 172.97L149.116 172.395L152.66 174.311L148.733 174.886Z" fill="black"/>
<path d="M160.42 152.277L156.876 150.361L160.803 149.786L164.348 151.702L160.42 152.277Z" fill="black"/>
<path d="M160.42 156.492L156.876 154.576V150.361L160.42 152.277V156.492Z" fill="black"/>
<path d="M160.42 152.277L156.876 150.361L160.803 149.786L164.348 151.702L160.42 152.277Z" fill="#B4B4B4"/>
<path d="M160.42 156.492L156.876 154.576V150.361L160.42 152.277V156.492Z" fill="#828282"/>
<path d="M133.117 202.285L129.573 200.369L133.5 199.794L137.045 201.71L133.117 202.285Z" fill="black"/>
<path d="M152.66 170.192L149.116 168.276V164.061L152.66 165.977V170.192Z" fill="#828282"/>
<path d="M137.045 197.495L133.5 195.579V191.459L137.045 193.375V197.495Z" fill="#828282"/>
<path d="M109.742 243.383L106.197 241.467L110.029 240.892L113.574 242.808L109.742 243.383Z" fill="#B4B4B4"/>
<path d="M156.588 161.187L153.044 159.271V155.055L156.588 156.971V161.187Z" fill="black"/>
<path d="M129.189 207.075L125.741 205.159L129.573 204.584L133.117 206.5L129.189 207.075Z" fill="#B4B4B4"/>
<path d="M148.733 174.886L145.188 172.97V168.755L148.733 170.671V174.886Z" fill="#828282"/>
<path d="M148.733 170.671L145.188 168.755L149.116 168.276L152.66 170.192L148.733 170.671Z" fill="#B4B4B4"/>
<path d="M160.42 148.062L156.971 146.146L160.803 145.571L164.348 147.487L160.42 148.062Z" fill="black"/>
<path d="M133.117 198.07L129.573 196.154L133.5 195.579L137.045 197.495L133.117 198.07Z" fill="#B4B4B4"/>
<path d="M152.66 165.977L149.116 164.061V159.845L152.66 161.761V165.977Z" fill="#828282"/>
<path d="M125.357 211.769L121.813 209.853L125.645 209.278L129.189 211.194L125.357 211.769Z" fill="black"/>
<path d="M144.805 179.676L141.356 177.76V173.545L144.805 175.461V179.676Z" fill="#828282"/>
<path d="M144.805 175.461L141.356 173.545L145.188 172.97L148.733 174.886L144.805 175.461Z" fill="#B4B4B4"/>
<path d="M156.588 156.971L153.044 155.055V150.84L156.588 152.756V156.971Z" fill="black"/>
<path d="M129.189 202.86L125.741 200.944L129.573 200.369L133.117 202.285L129.189 202.86Z" fill="black"/>
<path d="M148.733 170.671L145.188 168.755V164.54L148.733 166.456V170.671Z" fill="black"/>
<path d="M121.43 216.559L117.885 214.643L121.813 214.068L125.357 215.984L121.43 216.559Z" fill="black"/>
<path d="M121.43 216.559L117.885 214.643L121.813 214.068L125.357 215.984L121.43 216.559Z" fill="#B4B4B4"/>
<path d="M140.973 184.37L137.428 182.454V178.239L140.973 180.155V184.37Z" fill="#828282"/>
<path d="M140.973 180.155L137.428 178.239L141.356 177.76L144.805 179.676L140.973 180.155Z" fill="#B4B4B4"/>
<path d="M133.117 193.854L129.573 191.938L133.5 191.459L137.045 193.375L133.117 193.854Z" fill="black"/>
<path d="M105.814 243.958L102.27 242.042L106.197 241.467L109.742 243.383L105.814 243.958Z" fill="#B4B4B4"/>
<path d="M152.66 161.761L149.116 159.845V155.63L152.66 157.546V161.761Z" fill="#828282"/>
<path d="M125.357 207.554L121.813 205.638L125.741 205.159L129.189 207.075L125.357 207.554Z" fill="#B4B4B4"/>
<path d="M144.805 171.246L141.356 169.33L145.188 168.755L148.733 170.671L144.805 171.246Z" fill="black"/>
<path d="M144.805 175.461L141.356 173.545V169.33L144.805 171.246V175.461Z" fill="black"/>
<path d="M117.502 221.253L113.957 219.337L117.885 218.762L121.43 220.774L117.502 221.253Z" fill="black"/>
<path d="M117.502 221.253L113.957 219.337L117.885 218.762L121.43 220.774L117.502 221.253Z" fill="#B4B4B4"/>
<path d="M137.045 189.16L133.5 187.244V183.029L137.045 184.945V189.16Z" fill="#828282"/>
<path d="M137.045 184.945L133.5 183.029L137.428 182.454L140.973 184.37L137.045 184.945Z" fill="#B4B4B4"/>
<path d="M156.588 152.756L153.044 150.84V146.721L156.588 148.637V152.756Z" fill="black"/>
<path d="M156.588 148.637L153.044 146.721L156.971 146.146L160.42 148.062L156.588 148.637Z" fill="black"/>
<path d="M129.189 198.644L125.741 196.728L129.573 196.154L133.117 198.07L129.189 198.644Z" fill="#B4B4B4"/>
<path d="M148.733 166.456L145.188 164.54L145.284 160.324L148.733 162.336V166.456Z" fill="black"/>
<path d="M121.43 212.344L117.885 210.428L121.813 209.853L125.357 211.769L121.43 212.344Z" fill="black"/>
<path d="M140.973 180.155L137.428 178.239V174.024L140.973 175.94V180.155Z" fill="black"/>
<path d="M140.973 175.94L137.428 174.024L141.356 173.545L144.805 175.461L140.973 175.94Z" fill="black"/>
<path d="M133.117 189.639L129.573 187.723L133.5 187.244L137.045 189.16L133.117 189.639Z" fill="#B4B4B4"/>
<path d="M152.66 157.546L149.116 155.63V151.415L152.66 153.331V157.546Z" fill="#828282"/>
<path d="M125.357 203.339L121.813 201.423L125.741 200.944L129.189 202.86L125.357 203.339Z" fill="black"/>
<path d="M125.357 207.554L121.813 205.638V201.423L125.357 203.339V207.554Z" fill="black"/>
<path d="M117.502 217.038L113.957 215.122L117.885 214.643L121.43 216.559L117.502 217.038Z" fill="black"/>
<path d="M117.502 217.038L113.957 215.122L117.885 214.643L121.43 216.559L117.502 217.038Z" fill="#B4B4B4"/>
<path d="M137.045 184.945L133.5 183.029V178.814L137.045 180.73V184.945Z" fill="black"/>
<path d="M140.973 180.155V184.37L137.045 184.945V180.73L140.973 180.155Z" fill="black"/>
<path d="M137.045 180.73L133.5 178.814L137.428 178.239L140.973 180.155L137.045 180.73Z" fill="black"/>
<path d="M109.742 234.953L106.197 233.037V228.821L109.742 230.737V234.953Z" fill="black"/>
<path d="M109.742 234.953L106.197 233.037V228.821L109.742 230.737V234.953Z" fill="#828282"/>
<path d="M129.285 194.429L125.741 192.513L129.573 191.938L133.117 193.854L129.285 194.429Z" fill="black"/>
<path d="M101.886 244.437L98.4376 242.521L102.27 242.042L105.814 243.958L101.886 244.437Z" fill="#B4B4B4"/>
<path d="M113.67 221.828L110.125 219.912L113.957 219.337L117.502 221.253L113.67 221.828Z" fill="black"/>
<path d="M113.67 221.828L110.125 219.912L113.957 219.337L117.502 221.253L113.67 221.828Z" fill="#B4B4B4"/>
<path d="M133.117 185.52L129.668 183.604L133.5 183.029L137.045 184.945L133.117 185.52Z" fill="black"/>
<path d="M105.814 239.743L102.27 237.827V233.611L105.814 235.527V239.743Z" fill="black"/>
<path d="M105.814 239.743L102.27 237.827V233.611L105.814 235.527V239.743Z" fill="#828282"/>
<path d="M152.66 153.331L149.116 151.415V147.2L152.66 149.116V153.331Z" fill="#828282"/>
<path d="M125.357 199.219L121.813 197.303L125.741 196.728L129.189 198.644L125.357 199.219Z" fill="#B4B4B4"/>
<path d="M144.901 162.815L141.356 160.899L145.284 160.324L148.733 162.336L144.901 162.815Z" fill="#B4B4B4"/>
<path d="M117.502 212.919L114.053 211.003L117.885 210.428L121.43 212.344L117.502 212.919Z" fill="black"/>
<path d="M137.045 180.73L133.5 178.814V174.599L137.045 176.515V180.73Z" fill="#828282"/>
<path d="M109.742 230.737L106.197 228.821V224.606L109.742 226.522V230.737Z" fill="black"/>
<path d="M109.742 230.737L106.197 228.821V224.606L109.742 226.522V230.737Z" fill="#828282"/>
<path d="M129.285 190.214L125.741 188.298L129.573 187.723L133.117 189.639L129.285 190.214Z" fill="#B4B4B4"/>
<path d="M101.886 244.437L98.4376 242.521V238.306L101.886 240.222V244.437Z" fill="black"/>
<path d="M121.43 208.129L117.885 206.213V201.997L121.43 203.913V208.129Z" fill="#828282"/>
<path d="M140.973 171.82L137.428 169.904V165.689L140.973 167.605V171.82Z" fill="#828282"/>
<path d="M113.67 217.613L110.125 215.697L113.957 215.122L117.502 217.038L113.67 217.613Z" fill="#B4B4B4"/>
<path d="M113.67 217.613L110.125 215.697L113.957 215.122L117.502 217.038L113.67 217.613Z" fill="black"/>
<path d="M133.117 181.305L129.668 179.389L133.5 178.814L137.045 180.73L133.117 181.305Z" fill="#B4B4B4"/>
<path d="M105.814 235.527L102.27 233.611V229.396L105.814 231.312V235.527Z" fill="#828282"/>
<path d="M105.814 235.527L102.27 233.611V229.396L105.814 231.312V235.527Z" fill="black"/>
<path d="M125.357 195.004L121.813 193.088L125.741 192.513L129.285 194.429L125.357 195.004Z" fill="black"/>
<path d="M117.502 208.703L114.053 206.787L117.885 206.213L121.43 208.129L117.502 208.703Z" fill="#B4B4B4"/>
<path d="M137.045 176.515L133.5 174.599V170.383L137.045 172.299V176.515Z" fill="#828282"/>
<path d="M137.045 172.299L133.5 170.383L137.428 169.904L140.973 171.82L137.045 172.299Z" fill="#B4B4B4"/>
<path d="M109.742 226.522L106.197 224.606V220.487L109.742 222.403V226.522Z" fill="black"/>
<path d="M109.742 222.403L106.197 220.487L110.125 219.912L113.67 221.828L109.742 222.403Z" fill="#B4B4B4"/>
<path d="M109.742 226.522L106.197 224.606V220.487L109.742 222.403V226.522Z" fill="#828282"/>
<path d="M105.814 231.312L102.27 229.396V225.181L105.814 227.097V231.312Z" fill="black"/>
<path d="M105.814 231.312L102.27 229.396V225.181L105.814 227.097V231.312Z" fill="#828282"/>
<path d="M109.742 218.188L106.197 216.272L110.125 215.697L113.67 217.613L109.742 218.188Z" fill="#B4B4B4"/>
<path d="M109.742 218.188L106.197 216.272L110.125 215.697L113.67 217.613L109.742 218.188Z" fill="black"/>
<path d="M105.814 227.097L102.27 225.181L102.365 220.966L105.814 222.882V227.097Z" fill="black"/>
<path d="M105.814 227.097L102.27 225.181L102.365 220.966L105.814 222.882V227.097Z" fill="#828282"/>
<path d="M105.814 218.762L102.365 216.846L106.197 216.272L109.742 218.188L105.814 218.762Z" fill="black"/>
<path d="M105.814 218.762L102.365 216.846L106.197 216.272L109.742 218.188L105.814 218.762Z" fill="#B4B4B4"/>
<path d="M105.814 222.882L102.365 220.966V216.846L105.814 218.762V222.882Z" fill="#828282"/>
<path d="M105.814 222.882L102.365 220.966V216.846L105.814 218.762V222.882Z" fill="black"/>
<path d="M125.357 211.769L129.189 211.194V215.409V219.625V223.84V228.055V232.27V236.39V240.605L125.262 241.18L121.334 241.754L117.502 242.329L113.574 242.808L109.742 243.383L105.814 243.958L101.886 244.437V240.222V236.102L101.982 231.887V227.672V223.457V219.241V215.026L105.814 214.547L109.742 213.972L113.67 213.398L117.502 212.919L121.43 212.344L125.357 211.769Z" fill="black"/>
<path d="M125.262 220.199V224.415V228.63V232.749V236.964L121.43 237.539L117.502 238.114L113.574 238.593L109.742 239.168L105.814 239.743V235.527V231.312V227.097V222.882V218.762L109.742 218.188L113.67 217.613L117.502 217.038L121.43 216.559L125.357 215.984L125.262 220.199Z" fill="black"/>
<path d="M117.502 217.038L121.43 216.559L125.357 215.984L125.262 220.199V224.415V228.63V232.749V236.964L121.43 237.539L117.502 238.114L113.574 238.593L109.742 239.168L105.814 239.743V235.527V231.312V227.097V222.882V218.762L109.742 218.188L113.67 217.613L117.502 217.038Z" fill="white"/>
<path d="M121.43 224.894V229.109V233.324L117.502 233.899L113.574 234.378L109.742 234.953V230.737V226.522V222.403L113.67 221.828L117.502 221.253L121.43 220.774V224.894Z" fill="#DFDFDF"/>
<path d="M129.285 185.999L125.741 184.083L129.668 183.604L133.117 185.52L129.285 185.999Z" fill="black"/>
<path d="M101.886 240.222L98.4376 238.306V234.186L101.886 236.102V240.222Z" fill="black"/>
<path d="M148.828 149.691L145.284 147.775L149.116 147.2L152.66 149.116L148.828 149.691Z" fill="black"/>
<path d="M121.43 199.698L117.885 197.782L121.813 197.303L125.357 199.219L121.43 199.698Z" fill="#B4B4B4"/>
<path d="M121.43 203.913L117.885 201.997V197.782L121.43 199.698V203.913Z" fill="#828282"/>
<path d="M140.973 167.605L137.428 165.689V161.474L140.973 163.39V167.605Z" fill="#828282"/>
<path d="M140.973 163.39L137.428 161.474L141.356 160.899L144.901 162.815L140.973 163.39Z" fill="#B4B4B4"/>
<path d="M113.67 213.398L110.125 211.482L114.053 211.003L117.502 212.919L113.67 213.398Z" fill="black"/>
<path d="M133.117 181.305L129.668 179.389V175.173L133.213 177.089L133.117 181.305Z" fill="black"/>
<path d="M125.357 190.789L121.813 188.873L125.741 188.298L129.285 190.214L125.357 190.789Z" fill="#B4B4B4"/>
<path d="M125.357 195.004L121.813 193.088V188.873L125.357 190.789V195.004Z" fill="#828282"/>
<path d="M144.901 158.6L141.356 156.684V152.565L144.901 154.481V158.6Z" fill="#828282"/>
<path d="M144.901 154.481L141.356 152.565L145.284 151.99L148.733 153.906L144.901 154.481Z" fill="#B4B4B4"/>
<path d="M144.901 154.481L141.356 152.565L145.284 151.99L148.733 153.906L144.901 154.481Z" fill="black"/>
<path d="M144.901 158.6L141.356 156.684V152.565L144.901 154.481V158.6Z" fill="black"/>
<path d="M117.502 208.703L114.053 206.787V202.572L117.598 204.488L117.502 208.703Z" fill="black"/>
<path d="M137.045 172.299L133.5 170.383L133.596 166.264L137.045 168.18V172.299Z" fill="black"/>
<path d="M101.886 236.102L98.4376 234.186V229.971L101.982 231.887L101.886 236.102Z" fill="black"/>
<path d="M121.43 199.698L117.885 197.782L117.981 193.567L121.43 195.483V199.698Z" fill="black"/>
<path d="M140.973 163.39L137.428 161.474V157.259L140.973 159.175V163.39Z" fill="black"/>
<path d="M133.213 172.874L129.668 170.958L133.5 170.383L137.045 172.299L133.213 172.874Z" fill="black"/>
<path d="M133.213 177.089L129.668 175.173V170.958L133.213 172.874V177.089Z" fill="black"/>
<path d="M125.357 190.789L121.813 188.873V184.658L125.357 186.574V190.789Z" fill="black"/>
<path d="M125.357 186.574L121.813 184.658L125.741 184.083L129.285 185.999L125.357 186.574Z" fill="black"/>
<path d="M144.901 150.265L141.356 148.349L145.284 147.775L148.828 149.691L144.901 150.265Z" fill="black"/>
<path d="M117.598 200.273L114.053 198.357L117.885 197.782L121.43 199.698L117.598 200.273Z" fill="black"/>
<path d="M137.045 163.965L133.596 162.049L137.428 161.474L140.973 163.39L137.045 163.965Z" fill="black"/>
<path d="M109.742 213.972L106.197 212.056L110.125 211.482L113.67 213.398L109.742 213.972Z" fill="black"/>
<path d="M129.285 181.784L125.741 179.868V175.748L129.285 177.664V181.784Z" fill="#828282"/>
<path d="M101.982 231.887L98.4376 229.971V225.756L101.982 227.672V231.887Z" fill="black"/>
<path d="M121.43 191.364L117.981 189.448L121.813 188.873L125.357 190.789L121.43 191.364Z" fill="black"/>
<path d="M113.67 205.063L110.125 203.147L114.053 202.572L117.598 204.488L113.67 205.063Z" fill="#B4B4B4"/>
<path d="M113.67 209.182L110.125 207.266V203.147L113.67 205.063V209.182Z" fill="#828282"/>
<path d="M133.213 168.659L129.668 166.743L133.596 166.264L137.045 168.18L133.213 168.659Z" fill="#B4B4B4"/>
<path d="M125.357 182.358L121.813 180.442L125.741 179.868L129.285 181.784L125.357 182.358Z" fill="#B4B4B4"/>
<path d="M117.598 200.273L114.053 198.357V194.142L117.598 196.058V200.273Z" fill="#828282"/>
<path d="M117.598 196.058L114.053 194.142L117.981 193.567L121.43 195.483L117.598 196.058Z" fill="#B4B4B4"/>
<path d="M117.598 196.058L114.053 194.142V189.927L117.598 191.843V196.058Z" fill="black"/>
<path d="M117.598 196.058L121.43 195.483V199.698L117.598 200.273V196.058Z" fill="#DFDFDF"/>
<path d="M137.141 159.75L133.596 157.834L137.428 157.259L140.973 159.175L137.141 159.75Z" fill="#B4B4B4"/>
<path d="M109.742 209.757L106.197 207.841L110.125 207.266L113.67 209.182L109.742 209.757Z" fill="#B4B4B4"/>
<path d="M129.285 177.664L125.741 175.748V171.533L129.285 173.449V177.664Z" fill="#828282"/>
<path d="M101.982 227.672L98.4376 225.756V221.541L101.982 223.457V227.672Z" fill="black"/>
<path d="M121.43 191.364L117.981 189.448V185.232L121.525 187.148L121.43 191.364Z" fill="#828282"/>
<path d="M140.973 154.96L137.428 153.044V148.828L140.973 150.744V154.96Z" fill="black"/>
<path d="M140.973 150.744L137.428 148.828L141.356 148.349L144.901 150.265L140.973 150.744Z" fill="black"/>
<path d="M133.213 168.659L129.668 166.743V162.528L133.213 164.444V168.659Z" fill="black"/>
<path d="M133.213 164.444L129.668 162.528L133.596 162.049L137.045 163.965L133.213 164.444Z" fill="black"/>
<path d="M105.814 214.547L102.365 212.631L106.197 212.056L109.742 213.972L105.814 214.547Z" fill="black"/>
<path d="M137.141 155.534L133.596 153.618L137.428 153.044L140.973 154.96L137.141 155.534Z" fill="black"/>
<path d="M129.285 173.449L125.741 171.533V167.318L129.285 169.234V173.449Z" fill="#828282"/>
<path d="M101.982 223.457L98.4376 221.541V217.325L101.982 219.241V223.457Z" fill="black"/>
<path d="M121.525 182.933L117.981 181.017L121.813 180.442L125.357 182.358L121.525 182.933Z" fill="#B4B4B4"/>
<path d="M113.67 196.633L110.125 194.717L114.053 194.142L117.598 196.058L113.67 196.633Z" fill="black"/>
<path d="M133.213 160.324L129.668 158.408L133.596 157.834L137.141 159.75L133.213 160.324Z" fill="#B4B4B4"/>
<path d="M105.91 210.332L102.365 208.416L106.197 207.841L109.742 209.757L105.91 210.332Z" fill="#B4B4B4"/>
<path d="M117.598 187.627L114.053 185.711L117.981 185.232L121.525 187.148L117.598 187.627Z" fill="black"/>
<path d="M129.285 169.234L125.741 167.318V163.103L129.285 165.019V169.234Z" fill="#828282"/>
<path d="M101.982 215.026L98.4376 213.11L102.365 212.631L105.814 214.547L101.982 215.026Z" fill="black"/>
<path d="M101.982 219.241L98.4376 217.325V213.11L101.982 215.026V219.241Z" fill="black"/>
<path d="M113.67 192.417L110.125 190.501L114.053 189.927L117.598 191.843L113.67 192.417Z" fill="#B4B4B4"/>
<path d="M113.67 196.633L110.125 194.717V190.501L113.67 192.417V196.633Z" fill="#828282"/>
<path d="M133.213 156.109L129.668 154.193L133.596 153.618L137.141 155.534L133.213 156.109Z" fill="black"/>
<path d="M133.213 160.324L129.668 158.408V154.193L133.213 156.109V160.324Z" fill="black"/>
<path d="M105.91 210.332L102.365 208.416V204.201L105.91 206.117V210.332Z" fill="black"/>
<path d="M117.598 183.508L114.053 181.592L117.981 181.017L121.525 182.933L117.598 183.508Z" fill="#B4B4B4"/>
<path d="M129.285 165.019L125.741 163.103V158.887L129.285 160.803V165.019Z" fill="#828282"/>
<path d="M113.67 188.202L110.125 186.286L114.053 185.711L117.598 187.627L113.67 188.202Z" fill="black"/>
<path d="M109.742 197.207L106.293 195.291V191.076L109.838 192.992L109.742 197.207Z" fill="black"/>
<path d="M129.285 160.803L125.741 158.887L125.836 154.672L129.285 156.588V160.803Z" fill="#828282"/>
<path d="M101.982 206.692L98.4376 204.776L102.365 204.201L105.91 206.117L101.982 206.692Z" fill="#B4B4B4"/>
<path d="M113.67 183.987L110.221 182.071L114.053 181.592L117.598 183.508L113.67 183.987Z" fill="#B4B4B4"/>
<path d="M105.91 197.686L102.365 195.77L106.293 195.291L109.742 197.207L105.91 197.686Z" fill="black"/>
<path d="M109.838 188.777L106.293 186.861L110.125 186.286L113.67 188.202L109.838 188.777Z" fill="black"/>
<path d="M129.285 156.588L125.836 154.672V150.457L129.285 152.469V156.588Z" fill="#828282"/>
<path d="M101.982 206.692L98.4376 204.776V200.56L101.982 202.476V206.692Z" fill="black"/>
<path d="M105.91 193.471L102.365 191.555L106.293 191.076L109.838 192.992L105.91 193.471Z" fill="#B4B4B4"/>
<path d="M109.838 184.562L106.293 182.646L110.221 182.071L113.67 183.987L109.838 184.562Z" fill="#B4B4B4"/>
<path d="M101.982 198.261L98.4376 196.345L102.365 195.77L105.91 197.686L101.982 198.261Z" fill="black"/>
<path d="M101.982 202.476L98.4376 200.56V196.345L101.982 198.261V202.476Z" fill="black"/>
<path d="M105.91 189.352L102.365 187.436L106.293 186.861L109.838 188.777L105.91 189.352Z" fill="black"/>
<path d="M125.453 152.948L121.909 151.032L125.836 150.457L129.285 152.469L125.453 152.948Z" fill="black"/>
<path d="M101.982 194.046L98.4376 192.13L102.365 191.555L105.91 193.471L101.982 194.046Z" fill="#B4B4B4"/>
<path d="M121.525 157.738L117.981 155.822L121.909 155.247L125.453 157.163L121.525 157.738Z" fill="black"/>
<path d="M121.525 157.738L117.981 155.822L121.909 155.247L125.453 157.163L121.525 157.738Z" fill="#B4B4B4"/>
<path d="M105.91 185.137L102.365 183.221L106.293 182.646L109.838 184.562L105.91 185.137Z" fill="#B4B4B4"/>
<path d="M117.598 162.432L114.149 160.516L117.981 160.037L121.525 161.953L117.598 162.432Z" fill="black"/>
<path d="M117.598 162.432L114.149 160.516L117.981 160.037L121.525 161.953L117.598 162.432Z" fill="#B4B4B4"/>
<path d="M101.982 194.046L98.4376 192.13L98.5334 187.915L101.982 189.831V194.046Z" fill="black"/>
<path d="M101.982 189.831L98.5334 187.915L102.365 187.436L105.91 189.352L101.982 189.831Z" fill="black"/>
<path d="M121.525 153.523L117.981 151.607L121.909 151.032L125.453 152.948L121.525 153.523Z" fill="black"/>
<path d="M117.598 158.313L114.149 156.397L117.981 155.822L121.525 157.738L117.598 158.313Z" fill="black"/>
<path d="M117.598 158.313L114.149 156.397L117.981 155.822L121.525 157.738L117.598 158.313Z" fill="#B4B4B4"/>
<path d="M109.838 176.131L106.293 174.215V170L109.838 172.012V176.131Z" fill="black"/>
<path d="M109.838 176.131L106.293 174.215V170L109.838 172.012V176.131Z" fill="#828282"/>
<path d="M101.982 185.616L98.5334 183.7L102.365 183.221L105.91 185.137L101.982 185.616Z" fill="#B4B4B4"/>
<path d="M113.766 163.007L110.221 161.091L114.149 160.516L117.598 162.432L113.766 163.007Z" fill="black"/>
<path d="M113.766 163.007L110.221 161.091L114.149 160.516L117.598 162.432L113.766 163.007Z" fill="#B4B4B4"/>
<path d="M105.91 180.921L102.365 179.005V174.79L105.91 176.706V180.921Z" fill="black"/>
<path d="M105.91 180.921L102.365 179.005V174.79L105.91 176.706V180.921Z" fill="#828282"/>
<path d="M117.693 154.097L114.149 152.181L117.981 151.607L121.525 153.523L117.693 154.097Z" fill="black"/>
<path d="M109.838 172.012L106.293 170V165.881L109.838 167.797V172.012Z" fill="black"/>
<path d="M109.838 172.012L106.293 170V165.881L109.838 167.797V172.012Z" fill="#828282"/>
<path d="M101.982 185.616L98.5334 183.7V179.58L102.078 181.496L101.982 185.616Z" fill="black"/>
<path d="M113.766 158.792L110.221 156.876L114.149 156.397L117.598 158.313L113.766 158.792Z" fill="#B4B4B4"/>
<path d="M113.766 158.792L110.221 156.876L114.149 156.397L117.598 158.313L113.766 158.792Z" fill="black"/>
<path d="M105.91 176.706L102.365 174.79L102.461 170.575L105.91 172.491V176.706Z" fill="#828282"/>
<path d="M105.91 176.706L102.365 174.79L102.461 170.575L105.91 172.491V176.706Z" fill="black"/>
<path d="M109.838 167.797L106.293 165.881V161.666L109.838 163.582V167.797Z" fill="black"/>
<path d="M109.838 163.582L106.293 161.666L110.221 161.091L113.766 163.007L109.838 163.582Z" fill="black"/>
<path d="M121.525 161.953V166.072V170.288V174.503L117.598 175.078L113.67 175.652L109.838 176.131V172.012V167.797V163.582L113.766 163.007L117.598 162.432L121.525 161.953Z" fill="black"/>
<path d="M109.838 163.582L106.293 161.666L110.221 161.091L113.766 163.007L109.838 163.582Z" fill="#B4B4B4"/>
<path d="M109.838 167.797L106.293 165.881V161.666L109.838 163.582V167.797Z" fill="#828282"/>
<path d="M102.078 181.496L98.5334 179.58V175.365L102.078 177.281V181.496Z" fill="black"/>
<path d="M113.766 154.576L110.221 152.66L114.149 152.181L117.693 154.097L113.766 154.576Z" fill="black"/>
<path d="M105.91 172.491L102.461 170.575V166.36L105.91 168.276V172.491Z" fill="black"/>
<path d="M105.91 172.491L102.461 170.575V166.36L105.91 168.276V172.491Z" fill="#828282"/>
<path d="M109.838 159.366L106.293 157.45L110.221 156.876L113.766 158.792L109.838 159.366Z" fill="black"/>
<path d="M109.838 159.366L106.293 157.45L110.221 156.876L113.766 158.792L109.838 159.366Z" fill="#B4B4B4"/>
<path d="M102.078 177.281L98.5334 175.365V171.15L102.078 173.066V177.281Z" fill="black"/>
<path d="M105.91 168.276L102.461 166.36V162.145L105.91 164.061V168.276Z" fill="#828282"/>
<path d="M105.91 168.276L102.461 166.36V162.145L105.91 164.061V168.276Z" fill="black"/>
<path d="M109.838 155.151L106.389 153.235L110.221 152.66L113.766 154.576L109.838 155.151Z" fill="black"/>
<path d="M102.078 173.066L98.5334 171.15V166.935L102.078 168.851V173.066Z" fill="black"/>
<path d="M105.91 164.061L102.461 162.145V158.025L106.006 159.941L105.91 164.061Z" fill="black"/>
<path d="M106.006 159.941L102.461 158.025L106.293 157.45L109.838 159.366L106.006 159.941Z" fill="black"/>
<path d="M105.91 164.061L102.461 162.145V158.025L106.006 159.941L105.91 164.061Z" fill="#828282"/>
<path d="M106.006 159.941L102.461 158.025L106.293 157.45L109.838 159.366L106.006 159.941Z" fill="#B4B4B4"/>
<path d="M102.078 168.851L98.5334 166.935V162.719L102.078 164.635V168.851Z" fill="black"/>
<path d="M106.006 155.726L102.461 153.81L106.389 153.235L109.838 155.151L106.006 155.726Z" fill="black"/>
<path d="M102.078 164.635L98.5334 162.719V158.504L102.078 160.42V164.635Z" fill="black"/>
<path d="M102.078 156.205L98.5334 154.289L102.461 153.81L106.006 155.726L102.078 156.205Z" fill="black"/>
<path d="M102.078 160.42L98.5334 158.504V154.289L102.078 156.205V160.42Z" fill="black"/>
<path d="M86.5584 141.643L86.3668 263.501L199.219 247.598L199.411 125.741L86.5584 141.643ZM102.078 181.496V177.281V173.066V168.851V164.635V160.42V156.205L106.006 155.63L109.934 155.055L113.861 154.481L117.789 153.906L121.717 153.331L125.645 152.756L129.573 152.181V156.397V160.612V164.827V169.042V173.257V177.473V181.688L125.645 182.263L121.717 182.837L117.789 183.412L113.861 183.987L109.934 184.562L106.006 185.137L102.078 185.711V181.496ZM129.189 215.409V219.625V223.84V228.055V232.27V236.485V240.701L125.262 241.275L121.334 241.85L117.406 242.425L113.478 243L109.55 243.575L105.623 244.149L101.695 244.724V240.509V236.294V232.079V227.863V223.648V219.433V215.218L105.623 214.643L109.55 214.068L113.478 213.493L117.406 212.919L121.334 212.344L125.262 211.769L129.189 211.194V215.409ZM175.844 221.445L171.916 222.02V226.235L175.844 225.66V229.875V234.09L171.916 234.665L167.988 235.24L164.061 235.815L160.133 236.39V232.174L156.205 232.749L152.277 233.324V237.539L148.349 238.114V233.899L144.422 234.474V238.689L140.494 239.264V235.048V230.833L136.566 231.408V235.623V239.838L132.638 240.413V236.198V231.983V227.768V223.552V219.337L136.566 218.762V214.547L132.638 215.122V210.907V206.692L128.71 207.266L124.783 207.841V203.626L128.71 203.051L132.638 202.476L136.566 201.902V197.686L132.638 198.261L128.71 198.836L124.783 199.411L120.855 199.986V204.201V208.416L116.927 208.991V204.776L112.999 205.35V209.566L109.071 210.14L105.91 210.332V206.117L101.982 206.692V202.476V198.261L105.91 197.686L109.838 197.112V192.896L105.91 193.471L101.982 194.046V189.831L105.91 189.256L109.838 188.681L113.766 188.106L117.693 187.532L121.621 186.957V191.172L125.549 190.597V186.382L129.477 185.807L133.405 185.232L137.332 184.658V180.442L133.405 181.017V176.802V172.587L137.332 172.012V167.797L133.405 168.372V164.156L137.332 163.582L141.26 163.007V158.792L137.332 159.366L133.405 159.941V155.726L137.332 155.151L141.26 154.576V150.361L145.188 149.786L149.116 149.212L153.044 148.637V152.852V157.067V161.282V165.498V169.713L149.116 170.288V174.503L153.044 173.928V178.143L149.116 178.718V174.503L145.188 175.078V179.293L141.26 179.868V184.083L137.332 184.658V188.873L133.405 189.448L129.477 190.022L125.549 190.597V194.812L129.477 194.238L133.405 193.663L137.332 193.088V197.303L141.26 196.728V192.513L145.188 191.938V187.723V183.508L149.116 182.933V187.148L153.044 186.574V182.358L156.971 181.784V185.999L160.899 185.424V181.209L164.827 180.634V184.849V189.064V193.28V197.495V201.71V205.925L160.899 206.5V202.285V198.07L156.971 198.644L153.044 199.219V203.434V207.65L156.971 207.075V211.29L153.044 211.865V207.65L149.116 208.224V212.44L145.188 213.014V217.23L149.116 216.655V220.87L153.044 220.295V216.08L156.971 215.505V219.72L160.899 219.146V223.361L164.827 222.786V218.571V214.356L160.899 214.93V210.715L164.827 210.14V214.356L168.755 213.781V209.566V205.35L172.683 204.776L176.61 204.201V208.416V212.631L180.538 212.056V216.272L176.61 216.846L175.844 221.445ZM183.7 228.821L179.772 229.396V225.181L183.7 224.606V228.821ZM183.7 203.626V207.841L179.772 208.416V204.201V199.986L183.7 199.411V203.626ZM183.7 195.196L179.772 195.77L175.844 196.345V192.13V187.915L171.916 188.49V192.705V196.92L167.988 197.495V193.28V189.064V184.849V180.634L171.916 180.059V184.274L175.844 183.7V179.484L179.772 178.91V183.125L175.844 183.7V187.915L179.772 187.34V191.555L183.7 190.98V195.196ZM183.795 148.924V153.139V157.355V161.57V165.785V170V174.215L179.868 174.79L175.94 175.365L172.012 175.94L168.084 176.515L164.156 177.089L160.229 177.664L156.301 178.239V174.024V169.809V165.593V161.378V157.163V152.948V148.733L160.229 148.158L164.156 147.583L168.084 147.008L172.012 146.433L175.94 145.859L179.868 145.284L183.795 144.709V148.924Z" fill="white"/>
<path d="M183.7 224.606V228.821L179.772 229.3V225.085L183.7 224.606Z" fill="black"/>
<path d="M183.7 199.411V203.626V207.745L179.772 208.32V204.105V199.89L183.7 199.411Z" fill="black"/>
<path d="M168.084 226.81L164.156 227.289L164.252 223.073L168.084 222.594V226.81Z" fill="#DFDFDF"/>
<path d="M179.868 187.34V191.555L183.7 190.98V195.196L179.868 195.675L175.94 196.249V192.034V187.819L179.868 187.34Z" fill="black"/>
<path d="M164.252 210.524V214.739L160.324 215.218V211.098L164.252 210.524Z" fill="black"/>
<path d="M152.565 228.917V224.798L156.397 224.223V228.438L152.565 228.917Z" fill="#DFDFDF"/>
<path d="M156.397 228.438L152.565 228.917V224.798L156.397 224.223V228.438Z" fill="black"/>
<path d="M172.108 180.059V184.179L175.94 183.7V187.819L172.012 188.394V192.609V196.824L168.18 197.399V193.184V188.969V184.753V180.538L172.108 180.059Z" fill="black"/>
<path d="M136.949 222.786L140.877 222.211V226.426L136.949 226.905V222.786Z" fill="white"/>
<path d="M156.492 190.597V194.812L152.565 195.387V191.172L156.492 190.597Z" fill="#DFDFDF"/>
<path d="M148.733 195.866L144.805 196.441V192.226L148.733 191.651V195.866Z" fill="white"/>
<path d="M140.877 209.566V213.781L136.949 214.356L137.045 210.14V205.925L140.877 205.35L144.805 204.871V200.656L148.733 200.081L148.637 204.297V208.512L144.805 209.087L140.877 209.566Z" fill="white"/>
<path d="M152.66 174.311V178.526L148.733 179.101V174.886L152.66 174.311Z" fill="black"/>
<path d="M148.733 170.671V174.886L144.805 175.461V171.246L148.733 170.671Z" fill="black"/>
<path d="M179.963 145.284L183.795 144.805V148.924V153.139V157.355V161.57V165.785V170V174.215L179.868 174.694L175.94 175.269L172.108 175.844L168.18 176.323L164.252 176.898L160.42 177.473L156.492 177.952V173.832V169.617V165.402L156.588 161.187V156.971V152.756V148.637L160.42 148.062L164.348 147.487L168.276 146.912L172.108 146.433L176.036 145.859L179.963 145.284Z" fill="black"/>
<path d="M144.805 175.461V179.676L140.973 180.155V175.94L144.805 175.461Z" fill="black"/>
<path d="M121.525 187.148L121.43 191.364L125.357 190.789V195.004L129.285 194.429L133.117 193.854L137.045 193.375V197.495L133.117 198.07L129.189 198.644L125.357 199.219L121.43 199.698V195.483L117.598 196.058V191.843L113.67 192.417V196.633L117.598 196.058V200.273L121.43 199.698V203.913V208.129L117.502 208.703L117.598 204.488L113.67 205.063V209.182L109.742 209.757L105.91 210.332V206.117L101.982 206.692V202.476V198.261L105.91 197.686L109.742 197.207L109.838 192.992L105.91 193.471L101.982 194.046V189.831L105.91 189.352L109.838 188.777L113.67 188.202L117.598 187.627L121.525 187.148Z" fill="black"/>
<path d="M160.42 181.688L164.252 181.113V185.328V189.543V193.759V197.878V202.093V206.308L160.324 206.883V202.668V198.453L156.492 199.028L152.565 199.507V203.722V207.937L148.637 208.512V204.297L148.733 200.081L144.805 200.656V204.871L140.877 205.35L137.045 205.925V210.14L136.949 214.356L133.117 214.93V210.715V206.5L129.189 207.075L125.357 207.554V203.339L129.189 202.86L133.117 202.285L137.045 201.71V197.495L140.877 197.016V192.801L144.805 192.226V196.441L148.733 195.866V191.651L144.805 192.226V188.011V183.891L148.733 183.316V187.532L152.565 186.957L152.66 182.742L156.492 182.167V186.382L160.42 185.807V181.688Z" fill="black"/>
<path d="M121.43 220.774V224.894V229.109V233.324L117.502 233.899L113.574 234.378L109.742 234.953V230.737V226.522V222.403L113.67 221.828L117.502 221.253L121.43 220.774Z" fill="black"/>
<path d="M140.973 175.94V180.155L137.045 180.73V176.515V172.299L140.973 171.82V167.605V163.39L144.901 162.815L148.733 162.336V166.456V170.671L144.805 171.246V175.461L140.973 175.94Z" fill="white"/>
<path d="M148.733 153.906V158.121L144.901 158.6V154.481L148.733 153.906Z" fill="#DFDFDF"/>
<path d="M148.733 158.121L144.901 158.6V154.481L148.733 153.906V158.121Z" fill="black"/>
<path d="M137.045 172.299V176.515V180.73L133.117 181.305L133.213 177.089V172.874L137.045 172.299Z" fill="black"/>
<path d="M137.045 184.945V189.16L133.117 189.639L129.285 190.214L125.357 190.789V186.574L129.285 185.999L133.117 185.52L137.045 184.945Z" fill="black"/>
<path d="M140.973 163.39V167.605V171.82L137.045 172.299V168.18L133.213 168.659V164.444L137.045 163.965L140.973 163.39Z" fill="black"/>
<path d="M113.67 192.417L117.598 191.843V196.058L113.67 196.633V192.417Z" fill="#DFDFDF"/>
<path d="M148.828 149.691L152.66 149.116V153.331V157.546V161.761V165.977V170.192L148.733 170.671V166.456V162.336L144.901 162.815L140.973 163.39V159.175L137.141 159.75L133.213 160.324V156.109L137.141 155.534L140.973 154.96V150.744L144.901 150.265L148.828 149.691Z" fill="black"/>
<path d="M125.453 161.378V165.593L125.357 169.809V173.928V178.143L121.525 178.718L117.598 179.293L113.67 179.772L109.838 180.347L105.91 180.921V176.706V172.491V168.276V164.061L106.006 159.941L109.838 159.366L113.766 158.792L117.598 158.313L121.525 157.738L125.453 157.163V161.378Z" fill="black"/>
<path d="M113.67 179.772L109.838 180.347L105.91 180.921V176.706V172.491V168.276V164.061L106.006 159.941L109.838 159.366L113.766 158.792L117.598 158.313L121.525 157.738L125.453 157.163V161.378V165.593L125.357 169.809V173.928V178.143L121.525 178.718L117.598 179.293L113.67 179.772Z" fill="#DFDFDF"/>
<path d="M109.838 172.012V167.797V163.582L113.766 163.007L117.598 162.432L121.525 161.953V166.072V170.288V174.503L117.598 175.078L113.67 175.652L109.838 176.131V172.012Z" fill="#DFDFDF"/>
<path d="M125.453 152.948L129.285 152.469V156.588V160.803V165.019V169.234V173.449V177.664V181.784L125.357 182.358L121.525 182.933L117.598 183.508L113.67 183.987L109.838 184.562L105.91 185.137L101.982 185.616L102.078 181.496V177.281V173.066V168.851V164.635V160.42V156.205L106.006 155.726L109.838 155.151L113.766 154.576L117.693 154.097L121.525 153.523L125.453 152.948Z" fill="black"/>
<path d="M117.693 158.408L121.621 157.929L125.549 157.355L125.453 161.57V165.785V170V174.12V178.335L121.621 178.91L117.693 179.484L113.766 179.963L109.934 180.538L106.006 181.113V176.898V172.683V168.467V164.252V160.133L109.934 159.558L113.861 158.983L117.693 158.408Z" fill="white"/>
<path d="M121.621 162.145V166.264V170.479V174.694L117.693 175.269L113.766 175.748L109.934 176.323V172.108V167.893V163.773L113.861 163.198L117.693 162.624L121.621 162.145Z" fill="black"/>
<mask id="mask0_3803_1193" style="mask-type:luminance" maskUnits="userSpaceOnUse" x="267" y="301" width="19" height="19">
<path d="M272.794 319.065L267.716 316.287C274.518 315.233 279.979 308.814 279.979 301.725L285.056 304.503C285.056 311.497 279.595 318.011 272.794 319.065Z" fill="white"/>
</mask>
<g mask="url(#mask0_3803_1193)">
<path d="M272.794 319.065L267.716 316.287C268.962 316.095 270.207 315.712 271.357 315.137L276.434 317.915C275.284 318.49 274.135 318.873 272.794 319.065Z" fill="#14022B"/>
<path d="M276.434 317.915L271.357 315.137C272.027 314.754 272.794 314.371 273.368 313.988L278.446 316.766C277.871 317.149 277.2 317.532 276.434 317.915Z" fill="#13022A"/>
<path d="M278.542 316.766L273.464 313.988C273.943 313.604 274.518 313.221 274.997 312.838L280.074 315.616C279.5 315.999 279.021 316.383 278.542 316.766Z" fill="#120228"/>
<path d="M279.979 315.52L274.901 312.742C275.38 312.359 275.763 311.88 276.147 311.497L281.224 314.275C280.841 314.754 280.458 315.137 279.979 315.52Z" fill="#120227"/>
<path d="M281.224 314.275L276.147 311.497C276.53 311.018 276.913 310.635 277.2 310.156L282.278 312.934C281.99 313.413 281.607 313.796 281.224 314.275Z" fill="#110226"/>
<path d="M282.374 312.934L277.296 310.156C277.679 309.677 277.967 309.102 278.254 308.623L283.332 311.401C283.044 311.88 282.661 312.359 282.374 312.934Z" fill="#100224"/>
<path d="M283.332 311.305L278.254 308.527C278.637 307.856 278.925 307.282 279.116 306.611L284.194 309.389C283.906 310.06 283.619 310.73 283.332 311.305Z" fill="#100223"/>
<path d="M284.194 309.389L279.116 306.611C279.691 305.078 279.979 303.45 279.979 301.725L285.056 304.503C285.056 306.132 284.769 307.856 284.194 309.389Z" fill="#0F0222"/>
</g>
<path d="M178.239 333.243L173.257 330.465L267.812 316.287L272.794 319.065L178.239 333.243Z" fill="#13022E"/>
<mask id="mask1_3803_1193" style="mask-type:luminance" maskUnits="userSpaceOnUse" x="166" y="329" width="13" height="5">
<path d="M171.533 332.094L166.456 329.316C168.372 330.369 170.671 330.848 173.162 330.465L178.239 333.243C175.748 333.627 173.449 333.148 171.533 332.094Z" fill="white"/>
</mask>
<g mask="url(#mask1_3803_1193)">
<path d="M171.533 332.094L166.456 329.316C166.551 329.411 166.743 329.411 166.839 329.507L171.916 332.285C171.82 332.285 171.629 332.19 171.533 332.094Z" fill="#120228"/>
<path d="M171.916 332.285L166.839 329.507C167.414 329.795 168.084 330.082 168.851 330.274L173.928 333.052C173.162 332.86 172.491 332.573 171.916 332.285Z" fill="#13022A"/>
<path d="M173.832 333.052L168.755 330.274C170.096 330.657 171.629 330.753 173.162 330.465L178.239 333.243C176.706 333.435 175.269 333.339 173.832 333.052Z" fill="#14022B"/>
</g>
<mask id="mask2_3803_1193" style="mask-type:luminance" maskUnits="userSpaceOnUse" x="160" y="319" width="12" height="14">
<path d="M171.533 332.094L166.456 329.316C163.198 327.495 160.995 323.951 160.995 319.64L166.072 322.418C166.072 326.729 168.276 330.274 171.533 332.094Z" fill="white"/>
</mask>
<g mask="url(#mask2_3803_1193)">
<path d="M171.533 332.094L166.456 329.316C163.198 327.495 160.995 323.951 160.995 319.64L166.072 322.418C166.072 326.729 168.276 330.274 171.533 332.094Z" fill="#858585"/>
</g>
<mask id="mask3_3803_1193" style="mask-type:luminance" maskUnits="userSpaceOnUse" x="156" y="320" width="14" height="16">
<path d="M169.234 335.926L164.156 333.148C159.75 330.753 156.876 326.058 156.876 320.215L161.953 322.993C162.049 328.837 164.923 333.531 169.234 335.926Z" fill="white"/>
</mask>
<g mask="url(#mask3_3803_1193)">
<path d="M169.234 335.926L164.156 333.148C159.75 330.753 156.876 326.058 156.876 320.215L161.953 322.993C162.049 328.837 164.923 333.531 169.234 335.926Z" fill="#0F0222"/>
</g>
<path d="M285.056 304.503L279.979 301.725L279.308 90.1029L284.385 92.8811L285.056 304.503Z" fill="#0F0221"/>
<mask id="mask4_3803_1193" style="mask-type:luminance" maskUnits="userSpaceOnUse" x="273" y="80" width="12" height="13">
<path d="M273.847 80.3314L278.925 83.1096C282.182 84.9298 284.385 88.4744 284.385 92.7854L279.308 90.0072C279.308 85.6962 277.105 82.1516 273.847 80.3314Z" fill="white"/>
</mask>
<g mask="url(#mask4_3803_1193)">
<path d="M284.385 92.8811L279.308 90.103C279.308 85.6962 277.105 82.1516 273.847 80.4272L278.925 83.2054C282.182 84.9298 284.385 88.4743 284.385 92.8811Z" fill="#0F0222"/>
</g>
<mask id="mask5_3803_1193" style="mask-type:luminance" maskUnits="userSpaceOnUse" x="267" y="79" width="13" height="5">
<path d="M267.046 79.2775C269.632 78.8943 271.931 79.3733 273.943 80.4271L279.021 83.2053C277.105 82.1515 274.71 81.6725 272.123 82.0557C270.59 81.1935 268.483 80.0439 267.046 79.2775Z" fill="white"/>
</mask>
<g mask="url(#mask5_3803_1193)">
<path d="M272.027 81.9599L266.95 79.1817C268.578 78.9901 270.015 79.0859 271.452 79.3733L276.53 82.1515C275.189 81.8641 273.656 81.7683 272.027 81.9599Z" fill="#A8A8A8"/>
<path d="M276.53 82.2473L271.452 79.4691C272.123 79.6607 272.794 79.8523 273.464 80.2355L278.542 83.0137C277.967 82.6305 277.296 82.4389 276.53 82.2473Z" fill="#A3A3A3"/>
<path d="M278.542 82.9179L273.464 80.1397C273.56 80.2355 273.752 80.2355 273.847 80.3313L278.925 83.1095C278.829 83.1095 278.637 83.0137 278.542 82.9179Z" fill="#9E9E9E"/>
</g>
<mask id="mask6_3803_1193" style="mask-type:luminance" maskUnits="userSpaceOnUse" x="267" y="74" width="15" height="6">
<path d="M276.147 76.5951L281.224 79.3733C278.637 77.9363 275.476 77.3615 272.123 77.8405L267.046 75.0623C270.399 74.5833 273.56 75.1581 276.147 76.5951Z" fill="white"/>
</mask>
<g mask="url(#mask6_3803_1193)">
<path d="M272.027 77.7447L266.95 74.9665C269.057 74.6791 271.069 74.7749 272.889 75.2539L277.967 78.0321C276.147 77.5531 274.135 77.4573 272.027 77.7447Z" fill="#14022B"/>
<path d="M278.063 78.0321L272.985 75.2539C273.943 75.5413 274.805 75.8287 275.668 76.2119L280.745 78.9901C279.883 78.6069 278.925 78.3195 278.063 78.0321Z" fill="#13022A"/>
<path d="M280.649 79.0859L275.572 76.3077C275.763 76.4035 275.859 76.4993 276.051 76.5951L281.128 79.3733C281.032 79.1817 280.841 79.1817 280.649 79.0859Z" fill="#120228"/>
</g>
<path d="M252.58 84.9298L247.502 82.1516L267.046 79.2776L272.027 81.96L252.58 84.9298Z" fill="#B4B4B4"/>
<mask id="mask7_3803_1193" style="mask-type:luminance" maskUnits="userSpaceOnUse" x="243" y="82" width="10" height="8">
<path d="M243.958 86.6542C243.958 84.355 245.586 82.5348 247.502 82.1516L252.58 84.9298C250.664 85.2172 249.035 87.1332 249.035 89.4324V89.5282C247.311 88.5702 245.682 87.6122 243.958 86.6542Z" fill="white"/>
</mask>
<g mask="url(#mask7_3803_1193)">
<path d="M248.652 91.6358L243.575 88.8575C243.862 88.1869 243.958 87.4206 243.958 86.5584C243.958 85.9836 244.054 85.4087 244.245 84.9297L249.323 87.708C249.131 88.1869 249.035 88.7617 249.035 89.3365C249.035 90.1987 248.844 90.9652 248.652 91.6358Z" fill="#858585"/>
<path d="M249.323 87.7079L244.245 84.9297C244.341 84.7381 244.437 84.5465 244.533 84.3549L249.61 87.1332C249.514 87.3248 249.418 87.5164 249.323 87.7079Z" fill="#8A8A8A"/>
<path d="M249.61 87.1331L244.533 84.3549C244.628 84.1633 244.724 84.0675 244.82 83.8759L249.897 86.6541C249.802 86.8457 249.706 86.9415 249.61 87.1331Z" fill="#8F8F8F"/>
<path d="M249.897 86.6541L244.82 83.8759C244.916 83.7801 245.012 83.5885 245.107 83.4927L250.185 86.2709C250.089 86.3667 249.993 86.5583 249.897 86.6541Z" fill="#949494"/>
<path d="M250.185 86.271L245.107 83.4928C245.203 83.397 245.299 83.2054 245.491 83.1096L250.568 85.8878C250.376 85.9836 250.281 86.1752 250.185 86.271Z" fill="#999999"/>
<path d="M250.568 85.8877L245.491 83.1095C245.586 83.0137 245.778 82.9179 245.874 82.8221L250.951 85.6003C250.855 85.6961 250.664 85.7919 250.568 85.8877Z" fill="#9E9E9E"/>
<path d="M250.951 85.6004L245.874 82.8222C246.065 82.7264 246.257 82.6306 246.449 82.5348L251.526 85.313C251.334 85.313 251.143 85.4088 250.951 85.6004Z" fill="#A3A3A3"/>
<path d="M251.526 85.2172L246.449 82.439C246.736 82.2474 247.119 82.1516 247.502 82.1516L252.58 84.9298C252.197 85.0256 251.909 85.1214 251.526 85.2172Z" fill="#A8A8A8"/>
</g>
<mask id="mask8_3803_1193" style="mask-type:luminance" maskUnits="userSpaceOnUse" x="238" y="86" width="12" height="11">
<path d="M243.958 86.7499C245.682 87.7079 247.311 88.5701 249.035 89.5281C249.035 92.6895 246.544 95.6593 243.383 96.1383L238.306 93.3601C241.467 92.8811 243.958 89.9113 243.958 86.7499Z" fill="white"/>
</mask>
<g mask="url(#mask8_3803_1193)">
<path d="M243.383 96.0425L238.306 93.2643C238.88 93.1685 239.455 92.9769 239.934 92.7853L245.012 95.5635C244.533 95.8509 243.958 95.9467 243.383 96.0425Z" fill="#A8A8A8"/>
<path d="M245.107 95.5635L240.03 92.7853C240.317 92.5937 240.701 92.4021 240.988 92.2105L246.065 94.9887C245.682 95.1803 245.395 95.3719 245.107 95.5635Z" fill="#A3A3A3"/>
<path d="M245.97 94.9887L240.892 92.2105C241.18 92.0189 241.371 91.8273 241.563 91.6357L246.64 94.4139C246.449 94.7013 246.257 94.8929 245.97 94.9887Z" fill="#9E9E9E"/>
<path d="M246.736 94.5098L241.659 91.7316C241.85 91.54 242.042 91.3484 242.233 91.1568L247.311 93.935C247.119 94.1266 246.928 94.3182 246.736 94.5098Z" fill="#999999"/>
<path d="M247.311 93.935L242.233 91.1568C242.425 90.9652 242.617 90.7735 242.712 90.4861L247.79 93.2644C247.598 93.456 247.502 93.6476 247.311 93.935Z" fill="#949494"/>
<path d="M247.79 93.2644L242.712 90.4861C242.904 90.2945 243 90.0072 243.191 89.7198L248.269 92.498C248.077 92.7854 247.981 93.0728 247.79 93.2644Z" fill="#8F8F8F"/>
<path d="M248.173 92.4979L243.096 89.7198C243.287 89.4324 243.383 89.1449 243.479 88.8575L248.556 91.6358C248.556 91.9232 248.365 92.2105 248.173 92.4979Z" fill="#8A8A8A"/>
<path d="M248.652 91.6358L243.575 88.8575C243.862 88.1869 243.958 87.4206 243.958 86.5584C243.958 85.9836 244.054 85.4087 244.245 84.9297L249.323 87.708C249.131 88.1869 249.035 88.7617 249.035 89.3365C249.035 90.1987 248.844 90.9652 248.652 91.6358Z" fill="#858585"/>
</g>
<path d="M208.512 101.312L203.53 98.5333L238.306 93.3601L243.383 96.0425L208.512 101.312Z" fill="#B4B4B4"/>
<mask id="mask9_3803_1193" style="mask-type:luminance" maskUnits="userSpaceOnUse" x="203" y="98" width="6" height="4">
<path d="M203.434 98.5334L208.512 101.312C206.787 100.449 205.159 99.4914 203.434 98.5334Z" fill="white"/>
</mask>
<g mask="url(#mask9_3803_1193)">
<path d="M206.5 101.216L201.423 98.4376C201.997 98.6292 202.668 98.6292 203.434 98.5334L208.512 101.312C207.841 101.407 207.171 101.407 206.5 101.216Z" fill="#A8A8A8"/>
</g>
<mask id="mask10_3803_1193" style="mask-type:luminance" maskUnits="userSpaceOnUse" x="200" y="98" width="9" height="4">
<path d="M200.465 98.0544C201.327 98.5334 202.381 98.725 203.434 98.5334C205.159 99.4914 206.787 100.354 208.512 101.312C207.362 101.503 206.404 101.312 205.542 100.833C204.009 99.9703 201.997 98.9166 200.465 98.0544Z" fill="white"/>
</mask>
<g mask="url(#mask10_3803_1193)">
<path d="M205.446 100.833L200.369 98.0544C200.465 98.0544 200.465 98.1501 200.56 98.1501L205.638 100.928C205.638 100.833 205.542 100.833 205.446 100.833Z" fill="#9E9E9E"/>
<path d="M205.638 100.928L200.56 98.1501C200.848 98.2459 201.135 98.4375 201.423 98.4375L206.5 101.216C206.213 101.12 205.925 101.024 205.638 100.928Z" fill="#A3A3A3"/>
<path d="M206.5 101.216L201.423 98.4376C201.997 98.6292 202.668 98.6292 203.434 98.5334L208.512 101.312C207.841 101.407 207.171 101.407 206.5 101.216Z" fill="#A8A8A8"/>
</g>
<mask id="mask11_3803_1193" style="mask-type:luminance" maskUnits="userSpaceOnUse" x="197" y="93" width="9" height="8">
<path d="M205.446 100.737L200.369 97.9585C198.836 97.0963 197.878 95.5636 197.878 93.5518L202.955 96.33C202.955 98.3418 203.913 99.9704 205.446 100.737Z" fill="white"/>
</mask>
<g mask="url(#mask11_3803_1193)">
<path d="M205.446 100.737L200.369 97.9585C198.836 97.0963 197.878 95.5636 197.878 93.5518L202.955 96.33C202.955 98.3418 203.913 99.9704 205.446 100.737Z" fill="#0F0222"/>
</g>
<mask id="mask12_3803_1193" style="mask-type:luminance" maskUnits="userSpaceOnUse" x="196" y="90" width="7" height="7">
<path d="M196.249 90.4861L201.327 93.2644C202.285 93.8392 202.955 94.893 202.955 96.33L197.878 93.5518C197.878 92.1148 197.207 91.0609 196.249 90.4861Z" fill="white"/>
</mask>
<g mask="url(#mask12_3803_1193)">
<path d="M202.955 96.33L197.878 93.5518C197.878 92.1148 197.207 90.9651 196.249 90.4861L201.327 93.2644C202.285 93.8392 202.955 94.893 202.955 96.33Z" fill="#0F0222"/>
</g>
<mask id="mask13_3803_1193" style="mask-type:luminance" maskUnits="userSpaceOnUse" x="194" y="90" width="8" height="4">
<path d="M194.333 90.1987C195.1 90.1029 195.77 90.1987 196.345 90.4861L201.423 93.2643C200.848 92.9769 200.177 92.7853 199.411 92.9769C197.878 92.1147 195.866 91.0609 194.333 90.1987Z" fill="white"/>
</mask>
<g mask="url(#mask13_3803_1193)">
<path d="M199.411 92.977L194.333 90.1988C194.812 90.103 195.196 90.1988 195.675 90.2946L200.752 93.0728C200.273 92.8812 199.794 92.8812 199.411 92.977Z" fill="#A8A8A8"/>
<path d="M200.656 92.9769L195.579 90.1987C195.77 90.2945 195.962 90.2945 196.154 90.3903L201.231 93.1685C201.039 93.1685 200.848 93.0727 200.656 92.9769Z" fill="#A3A3A3"/>
<path d="M201.231 93.2643L196.154 90.4861C196.154 90.4861 196.249 90.4861 196.249 90.5819L201.327 93.3601C201.327 93.2643 201.327 93.2643 201.231 93.2643Z" fill="#9E9E9E"/>
</g>
<path d="M177.664 96.2341L172.587 93.456L194.333 90.1988L199.411 92.977L177.664 96.2341Z" fill="#B4B4B4"/>
<path d="M177.568 92.0189L172.587 89.2407L267.046 75.0623L272.027 77.7447L177.568 92.0189Z" fill="#13022E"/>
<path d="M166.072 322.418L160.995 319.64L160.324 108.018L165.402 110.7L166.072 322.418Z" fill="#828282"/>
<path d="M161.953 322.993L156.971 320.31L156.205 108.592L161.282 111.371L161.953 322.993Z" fill="#0F0221"/>
<mask id="mask14_3803_1193" style="mask-type:luminance" maskUnits="userSpaceOnUse" x="160" y="93" width="18" height="18">
<path d="M165.402 110.7L160.324 107.922C160.324 100.928 165.785 94.4139 172.587 93.3601L177.664 96.1383C170.862 97.2879 165.402 103.707 165.402 110.7Z" fill="white"/>
</mask>
<g mask="url(#mask14_3803_1193)">
<path d="M165.402 110.7L160.324 107.922C160.324 106.197 160.612 104.569 161.187 103.036L166.264 105.814C165.689 107.443 165.402 109.071 165.402 110.7Z" fill="#858585"/>
<path d="M166.264 105.814L161.187 103.036C161.474 102.365 161.761 101.695 162.049 101.12L167.126 103.898C166.839 104.569 166.551 105.144 166.264 105.814Z" fill="#8A8A8A"/>
<path d="M167.126 103.898L162.049 101.12C162.336 100.545 162.624 100.066 163.007 99.5871L168.084 102.365C167.797 102.844 167.414 103.323 167.126 103.898Z" fill="#8F8F8F"/>
<path d="M168.084 102.365L163.007 99.5871C163.39 99.1081 163.677 98.6291 164.061 98.2459L169.138 101.024C168.851 101.407 168.467 101.886 168.084 102.365Z" fill="#949494"/>
<path d="M169.234 100.928L164.156 98.1501C164.54 97.6711 164.923 97.288 165.402 96.9048L170.479 99.6829C170 100.066 169.617 100.545 169.234 100.928Z" fill="#999999"/>
<path d="M170.479 99.6829L165.402 96.9047C165.881 96.5215 166.36 96.0425 166.935 95.7551L172.012 98.5333C171.437 98.9165 170.958 99.2997 170.479 99.6829Z" fill="#9E9E9E"/>
<path d="M171.916 98.5333L166.839 95.7551C167.509 95.2761 168.18 94.8929 168.851 94.6055L173.928 97.3837C173.257 97.6711 172.587 98.0543 171.916 98.5333Z" fill="#A3A3A3"/>
<path d="M174.024 97.2879L168.946 94.5097C170.096 93.9349 171.341 93.5517 172.587 93.3601L177.664 96.1383C176.323 96.4257 175.173 96.8089 174.024 97.2879Z" fill="#A8A8A8"/>
</g>
<path d="M288.409 92.2106L289.08 303.833C289.08 313.125 281.799 321.843 272.794 323.184L178.335 337.363C169.234 338.608 161.953 332.19 161.953 322.897L161.282 111.275C161.282 101.982 168.563 93.2644 177.568 91.9232L272.027 77.7448C281.128 76.4994 288.409 82.918 288.409 92.2106ZM272.794 319.065C279.595 318.011 285.056 311.593 285.056 304.503L284.385 92.8812C284.385 85.8878 278.925 81.0978 272.219 82.0558L252.58 85.0256C250.664 85.313 249.035 87.229 249.035 89.2408C249.035 92.6896 246.544 95.6594 243.383 96.1384L208.608 101.407C205.446 101.886 202.955 99.5872 202.955 96.4258C202.955 94.1266 201.327 92.7854 199.411 93.0728L177.664 96.33C170.862 97.3838 165.402 103.802 165.402 110.892L166.072 322.514C166.072 329.507 171.533 334.297 178.239 333.339L272.794 319.065Z" fill="#1A0339"/>
<path d="M272.027 81.96C278.829 81.002 284.29 85.792 284.29 92.7854L284.96 304.408C284.96 311.401 279.5 317.915 272.698 318.969L178.239 333.148C171.437 334.106 165.977 329.316 165.977 322.322L165.402 110.7C165.402 103.707 170.862 97.1922 177.664 96.1384L199.411 92.8812C201.423 92.5938 202.955 94.0308 202.955 96.0426C202.955 99.4914 205.446 101.695 208.512 101.312L243.383 96.0426C246.544 95.5636 249.035 92.5938 249.035 89.3366C249.035 87.0374 250.664 85.2172 252.58 84.834L272.027 81.96Z" fill="white"/>
<mask id="mask15_3803_1193" style="mask-type:luminance" maskUnits="userSpaceOnUse" x="156" y="89" width="22" height="23">
<path d="M161.282 111.371L156.205 108.592C156.205 99.2998 163.486 90.582 172.491 89.2408L177.568 92.019C168.563 93.3602 161.282 102.078 161.282 111.371Z" fill="white"/>
</mask>
<g mask="url(#mask15_3803_1193)">
<path d="M161.282 111.371L156.205 108.592C156.205 106.389 156.588 104.186 157.355 102.078L162.432 104.856C161.666 106.964 161.282 109.167 161.282 111.371Z" fill="#0F0222"/>
<path d="M162.432 104.856L157.355 102.078C157.642 101.216 158.121 100.258 158.504 99.4914L163.582 102.27C163.198 103.132 162.815 103.994 162.432 104.856Z" fill="#100223"/>
<path d="M163.677 102.27L158.6 99.4914C158.983 98.725 159.462 98.0544 159.845 97.3838L164.923 100.162C164.444 100.833 164.061 101.503 163.677 102.27Z" fill="#100224"/>
<path d="M164.923 100.162L159.845 97.3837C160.324 96.7131 160.803 96.1383 161.282 95.5635L166.36 98.3417C165.881 98.9165 165.402 99.4913 164.923 100.162Z" fill="#110226"/>
<path d="M166.36 98.3418L161.282 95.5635C161.761 94.9887 162.336 94.4139 162.911 93.8391L167.988 96.6174C167.509 97.1922 166.935 97.767 166.36 98.3418Z" fill="#120227"/>
<path d="M168.084 96.6173L163.007 93.8391C163.677 93.2643 164.348 92.6895 165.019 92.2105L170.096 94.9887C169.33 95.5635 168.659 96.0425 168.084 96.6173Z" fill="#120228"/>
<path d="M170.096 95.0846L165.019 92.3064C165.881 91.7316 166.839 91.1568 167.797 90.7736L172.874 93.5518C171.82 93.935 170.958 94.414 170.096 95.0846Z" fill="#13022A"/>
<path d="M172.778 93.456L167.701 90.6778C169.234 90.0072 170.862 89.4324 172.491 89.2408L177.568 92.019C175.94 92.2106 174.311 92.7854 172.778 93.456Z" fill="#14022B"/>
</g>
<path d="M261.872 269.632C261.872 274.135 258.615 277.967 254.208 278.733L203.818 286.493C198.357 287.355 193.375 283.14 193.375 277.584C193.375 273.081 196.633 269.249 201.039 268.483L251.43 260.723C256.795 259.956 261.777 264.172 261.872 269.632Z" fill="#475569"/>
<path d="M218.293 278.88C217.78 278.962 217.291 278.973 216.824 278.912C216.357 278.845 215.983 278.723 215.701 278.547L216.228 277.336C216.499 277.49 216.819 277.602 217.188 277.672C217.563 277.735 217.943 277.735 218.328 277.674C218.62 277.627 218.856 277.562 219.034 277.478C219.218 277.387 219.354 277.282 219.442 277.163C219.53 277.045 219.575 276.917 219.578 276.781C219.582 276.608 219.517 276.483 219.385 276.406C219.253 276.322 219.078 276.267 218.86 276.241C218.642 276.208 218.399 276.185 218.132 276.173C217.871 276.153 217.607 276.121 217.341 276.078C217.08 276.033 216.842 275.961 216.625 275.86C216.408 275.759 216.232 275.609 216.096 275.409C215.967 275.208 215.906 274.935 215.913 274.589C215.921 274.218 216.026 273.866 216.228 273.532C216.436 273.191 216.74 272.899 217.14 272.657C217.547 272.407 218.052 272.234 218.656 272.137C219.059 272.073 219.454 272.059 219.842 272.095C220.231 272.125 220.573 272.212 220.867 272.356L220.385 273.568C220.09 273.443 219.794 273.365 219.497 273.332C219.2 273.293 218.908 273.297 218.621 273.343C218.334 273.389 218.099 273.46 217.914 273.558C217.73 273.655 217.597 273.765 217.515 273.889C217.434 274.007 217.391 274.137 217.388 274.279C217.385 274.446 217.449 274.571 217.581 274.654C217.713 274.732 217.888 274.784 218.106 274.81C218.325 274.837 218.564 274.86 218.825 274.88C219.092 274.899 219.356 274.927 219.617 274.966C219.883 275.003 220.125 275.072 220.342 275.173C220.559 275.273 220.732 275.424 220.861 275.625C220.997 275.825 221.061 276.095 221.053 276.434C221.046 276.799 220.938 277.149 220.73 277.483C220.522 277.818 220.215 278.111 219.808 278.36C219.408 278.609 218.903 278.782 218.293 278.88ZM225.089 277.792C224.594 277.871 224.136 277.865 223.712 277.772C223.295 277.673 222.934 277.497 222.629 277.244C222.324 276.991 222.088 276.675 221.92 276.296C221.758 275.915 221.682 275.481 221.693 274.993C221.703 274.505 221.798 274.044 221.978 273.609C222.163 273.173 222.415 272.779 222.732 272.426C223.056 272.073 223.43 271.782 223.855 271.554C224.279 271.32 224.741 271.163 225.242 271.083C225.797 270.994 226.295 271.013 226.736 271.139C227.183 271.259 227.555 271.482 227.852 271.81L226.882 272.852C226.667 272.634 226.427 272.484 226.162 272.404C225.896 272.317 225.605 272.299 225.287 272.35C224.988 272.398 224.713 272.491 224.461 272.63C224.208 272.769 223.989 272.946 223.802 273.16C223.615 273.375 223.467 273.617 223.358 273.887C223.255 274.156 223.2 274.444 223.193 274.753C223.187 275.062 223.229 275.335 223.322 275.573C223.42 275.81 223.558 276.006 223.737 276.162C223.916 276.318 224.13 276.425 224.378 276.484C224.626 276.543 224.899 276.548 225.198 276.5C225.516 276.45 225.81 276.341 226.081 276.175C226.352 276.002 226.6 275.768 226.825 275.474L227.758 276.211C227.445 276.636 227.06 276.984 226.605 277.254C226.155 277.523 225.65 277.702 225.089 277.792ZM227.77 277.252L230.763 270.31L232.228 270.076L234.953 276.103L233.397 276.352L231.177 271.001L231.763 270.907L229.288 277.009L227.77 277.252ZM229.227 275.634L229.645 274.432L232.939 273.904L233.317 274.98L229.227 275.634ZM215.955 290.103L216.094 283.618L217.32 283.421L220.999 287.486L220.404 287.581L220.504 282.912L221.968 282.678L221.829 289.163L220.612 289.358L216.924 285.294L217.519 285.199L217.419 289.869L215.955 290.103Z" fill="white"/>
<path d="M182.646 167.893L197.974 165.114L252.963 155.247L268.195 152.565V172.491V238.018L182.646 253.346V167.893Z" stroke="black" stroke-width="5" stroke-miterlimit="10"/>
<path fill-rule="evenodd" clip-rule="evenodd" d="M191.364 197.686L194.621 197.112L197.878 196.537L201.135 195.962L204.392 195.387L207.65 194.812L210.907 194.238L214.164 193.663V190.406V187.148V183.891V180.634V177.377V174.12V170.862L210.907 171.437L207.65 172.012L204.392 172.587L201.135 173.162L197.878 173.736L194.621 174.311L191.364 174.886V178.143V181.4V184.658V187.915V191.172V194.429V197.686ZM194.621 193.95L197.878 193.375L201.135 192.801L204.392 192.226L207.65 191.651L210.907 191.076V187.819V184.466V181.209V177.952V174.694L207.65 175.269L204.392 175.844L201.135 176.419L197.878 176.994L194.621 177.568V180.826V184.083V187.34V190.597V193.95Z" fill="black"/>
<path fill-rule="evenodd" clip-rule="evenodd" d="M230.258 184.274L233.516 183.7V180.442V177.185V173.928V170.671V167.414L230.258 167.988L227.001 168.563L223.744 169.138V172.395L220.487 172.97L217.23 173.545V176.802L220.487 176.227L223.744 175.652V178.91L227.001 178.335L230.258 177.76V181.017V184.274ZM227.097 175.078L230.354 174.503V171.246L227.097 171.82V175.078Z" fill="black"/>
<path fill-rule="evenodd" clip-rule="evenodd" d="M236.773 189.543L240.03 188.969L243.287 188.394L246.544 187.819L249.802 187.244L253.059 186.669L256.316 186.095L259.573 185.52V182.263V179.005V175.748V172.491V169.234V165.977V162.719L256.316 163.294L253.059 163.869L249.802 164.444L246.544 165.019L243.287 165.593L240.03 166.264L236.773 166.839V170.096V173.353V176.61V179.868V183.125V186.382V189.543ZM240.03 185.711L243.287 185.137L246.544 184.562L249.802 183.987L253.059 183.412L256.316 182.837V179.58V176.323V173.066V169.809V166.551L253.059 167.126L249.802 167.701L246.544 168.276L243.287 168.851L240.03 169.425V172.683V175.94V179.197V182.454V185.711Z" fill="black"/>
<path fill-rule="evenodd" clip-rule="evenodd" d="M197.878 190.118L201.135 189.543L204.392 188.873L207.554 188.298V185.137V181.879V178.622L204.392 179.197L201.135 179.772L197.878 180.347V183.604V186.861V190.118Z" fill="black"/>
<path fill-rule="evenodd" clip-rule="evenodd" d="M243.287 181.879L246.544 181.305L249.706 180.73L252.963 180.155V176.898V173.736V170.479L249.706 171.054L246.544 171.629L243.287 172.204V175.461V178.718V181.879Z" fill="black"/>
<path fill-rule="evenodd" clip-rule="evenodd" d="M220.583 185.999L223.84 185.424V182.167V178.91L220.583 179.484L217.325 180.059V183.316L220.583 182.742V185.999Z" fill="black"/>
<path fill-rule="evenodd" clip-rule="evenodd" d="M217.325 193.088L220.583 192.513V189.256V185.999L217.325 186.574V189.831V193.088Z" fill="black"/>
<path fill-rule="evenodd" clip-rule="evenodd" d="M227.097 188.106L230.258 187.532V184.274L227.097 184.849" fill="black"/>
<path fill-rule="evenodd" clip-rule="evenodd" d="M223.84 191.938L227.097 191.364V188.106L223.84 188.681" fill="black"/>
<path fill-rule="evenodd" clip-rule="evenodd" d="M230.258 190.693L233.516 190.118V186.957L230.258 187.532" fill="black"/>
<path fill-rule="evenodd" clip-rule="evenodd" d="M220.583 195.77L223.84 195.196V191.938L220.583 192.513" fill="black"/>
<path fill-rule="evenodd" clip-rule="evenodd" d="M194.621 216.655L197.878 215.984L201.135 215.409V212.152L204.392 211.577V214.835L207.554 214.26V211.003V207.745L204.392 208.416V205.159L201.135 205.734V202.476L204.392 201.902V205.159L207.554 204.584V207.745L210.811 207.171L214.068 206.596L217.325 206.021L220.583 205.446V202.189L217.325 202.764L214.068 203.339L210.811 204.009V200.752L207.554 201.327V198.07L204.392 198.644L201.135 199.219L197.878 199.794L194.621 200.369L191.364 200.944V204.201L194.621 203.626L197.878 203.051V206.308L194.621 206.883L191.364 207.458V210.715V213.972L194.621 213.398V216.655Z" fill="black"/>
<path fill-rule="evenodd" clip-rule="evenodd" d="M210.811 200.752L214.068 200.177L217.325 199.602L220.583 198.932V195.77L217.325 196.345L214.068 196.92L210.811 197.495V200.752Z" fill="black"/>
<path fill-rule="evenodd" clip-rule="evenodd" d="M217.325 219.05L220.583 218.475V215.218V211.961L223.84 211.386L227.097 210.811V207.554L230.354 206.979V210.236V213.493L233.611 212.919V209.661V206.404L236.869 205.829L240.126 205.255V208.512V211.769L243.383 211.194V207.937V204.584V201.327V198.07V194.812V191.555L240.126 192.13V195.387L236.869 195.962V192.705L233.611 193.28V196.537L230.354 197.112V193.854L227.097 194.429V197.686V200.944L230.354 200.369V203.626L227.097 204.201V200.944L223.84 201.518V204.776L220.583 205.35V208.608L217.325 209.182L214.068 209.757L210.811 210.332V213.589L214.068 213.014L217.325 212.44V215.697V219.05ZM233.516 203.147L236.773 202.572V199.315L233.516 199.89V203.147Z" fill="black"/>
<path fill-rule="evenodd" clip-rule="evenodd" d="M246.544 204.009L249.706 203.434V200.177V197.016L252.963 196.345V193.184L249.706 193.759V190.501L246.544 191.076V194.333V197.591V200.752V204.009Z" fill="black"/>
<path fill-rule="evenodd" clip-rule="evenodd" d="M252.963 193.184L256.22 192.609V189.352L252.963 189.927" fill="black"/>
<path fill-rule="evenodd" clip-rule="evenodd" d="M252.963 202.86L256.22 202.285L259.477 201.71V198.453L256.22 199.028V195.77L252.963 196.345V199.602V202.86Z" fill="black"/>
<path fill-rule="evenodd" clip-rule="evenodd" d="M256.22 212.056L259.477 211.482V208.224V204.967L256.22 205.542V208.799V212.056Z" fill="black"/>
<path fill-rule="evenodd" clip-rule="evenodd" d="M191.364 243.096L194.621 242.521L197.878 241.946L201.135 241.371L204.392 240.796L207.65 240.222L210.907 239.647L214.164 239.072V235.815V232.558V229.3V226.043V222.786V219.529V216.272L210.907 216.846L207.65 217.421L204.392 217.996L201.135 218.571L197.878 219.146L194.621 219.72L191.364 220.295V223.552V226.81V230.067V233.324V236.581V239.838V243.096ZM194.621 239.264L197.878 238.689L201.135 238.114L204.392 237.539L207.65 236.964L210.907 236.39V233.132V229.875V226.618V223.361V220.104L207.65 220.678L204.392 221.253L201.135 221.828L197.878 222.403L194.621 222.978V226.235V229.492V232.749V236.006V239.264Z" fill="black"/>
<path fill-rule="evenodd" clip-rule="evenodd" d="M217.325 238.497L220.583 237.922V234.665V231.408L223.84 230.833V227.576L220.583 228.151V224.894L223.84 224.319V227.576L227.097 227.001L230.354 226.426V229.684L227.097 230.258L223.84 230.833V234.09V237.348L227.097 236.773V233.516L230.354 232.941V236.198L233.611 235.623V232.366L236.869 231.791L240.126 231.216V234.474L243.383 233.899L246.64 233.324L249.897 232.749L253.155 232.174V228.917V225.66L249.897 226.235V222.978L253.155 222.403V219.146L256.412 218.571V215.314L253.155 215.888V212.631V209.374L249.897 209.949L246.64 210.524V213.781V217.038L243.383 217.613V220.87V224.127L246.64 223.552V226.81L243.383 227.384V224.127L240.03 224.702V221.445L236.773 222.02V218.762L233.516 219.337V222.594L230.258 223.169V219.912L227.001 220.487V217.23L230.258 216.655V213.398L227.001 213.972L223.744 214.547V217.804L220.487 218.379V221.636L217.23 222.211V225.468V228.726V231.983V235.24V238.497M233.516 229.109L236.773 228.534V225.277L233.516 225.852V229.109Z" fill="black"/>
<path fill-rule="evenodd" clip-rule="evenodd" d="M233.516 216.08L236.773 215.505V212.248L233.516 212.823" fill="black"/>
<path fill-rule="evenodd" clip-rule="evenodd" d="M240.03 218.188L243.287 217.613V214.356L240.03 214.93" fill="black"/>
<path fill-rule="evenodd" clip-rule="evenodd" d="M197.878 235.527L201.135 234.857L204.392 234.282L207.554 233.707V230.45V227.289V224.031L204.392 224.606L201.135 225.181L197.878 225.756V229.013V232.27V235.527Z" fill="black"/>
<path fill-rule="evenodd" clip-rule="evenodd" d="M256.22 228.247L259.477 227.672V224.415L256.22 224.989" fill="black"/>
<path d="M284.769 197.686L165.785 217.613L165.689 210.715L284.769 190.885V197.686Z" fill="#C9431A"/>
<mask id="mask16_3803_1193" style="mask-type:luminance" maskUnits="userSpaceOnUse" x="204" y="184" width="166" height="263">
<path d="M369.456 184.274H204.68V446.383H369.456V184.274Z" fill="white"/>
</mask>
<g mask="url(#mask16_3803_1193)">
<path d="M324.621 259.573L304.695 203.626C303.737 200.944 301.246 199.123 298.468 199.123H289.367V223.457L294.732 233.611C295.498 235.048 298.947 256.795 297.893 258.04C293.774 262.639 292.912 266.758 281.128 293.965C279.883 296.935 276.434 306.707 273.656 308.335C269.345 310.826 263.98 309.485 261.106 305.366L239.359 274.135C235.048 267.908 226.331 266.471 220.774 272.219C216.367 276.721 216.08 283.811 219.625 288.984L241.18 319.927C244.437 324.621 246.257 330.178 246.353 335.83C246.736 350.679 249.706 382.197 267.046 405.093V471.291L318.394 451.173L325.579 267.429C325.963 264.842 325.484 262.16 324.621 259.573Z" fill="#FFC89D"/>
</g>
<mask id="mask17_3803_1193" style="mask-type:luminance" maskUnits="userSpaceOnUse" x="204" y="184" width="166" height="263">
<path d="M369.456 184.274H204.68V446.383H369.456V184.274Z" fill="white"/>
</mask>
<g mask="url(#mask17_3803_1193)">
<path d="M260.819 449.736V424.349C260.819 421.954 261.968 419.655 263.884 418.218C271.069 412.853 290.421 400.112 317.532 394.747C322.322 393.789 326.633 397.525 326.633 402.315L326.154 449.736H260.819Z" fill="#475569"/>
</g>
<defs>
<linearGradient id="paint0_linear_3803_1193" x1="361.964" y1="101.542" x2="103.12" y2="386.428" gradientUnits="userSpaceOnUse">
<stop stop-color="#EC5C57"/>
<stop offset="1" stop-color="#DC5C57"/>
</linearGradient>
</defs>
</svg>
